%TF.GenerationSoftware,KiCad,Pcbnew,10.0.1*%
%TF.CreationDate,2026-05-05T15:24:40-05:00*%
%TF.ProjectId,ProjectBackup6AM,50726f6a-6563-4744-9261-636b75703641,V1*%
%TF.SameCoordinates,Original*%
%TF.FileFunction,Legend,Bot*%
%TF.FilePolarity,Positive*%
%FSLAX46Y46*%
G04 Gerber Fmt 4.6, Leading zero omitted, Abs format (unit mm)*
G04 Created by KiCad (PCBNEW 10.0.1) date 2026-05-05 15:24:40*
%MOMM*%
%LPD*%
G01*
G04 APERTURE LIST*
%ADD10C,0.150000*%
%ADD11C,0.120000*%
G04 APERTURE END LIST*
D10*
X76329166Y-32484819D02*
X76662499Y-32008628D01*
X76900594Y-32484819D02*
X76900594Y-31484819D01*
X76900594Y-31484819D02*
X76519642Y-31484819D01*
X76519642Y-31484819D02*
X76424404Y-31532438D01*
X76424404Y-31532438D02*
X76376785Y-31580057D01*
X76376785Y-31580057D02*
X76329166Y-31675295D01*
X76329166Y-31675295D02*
X76329166Y-31818152D01*
X76329166Y-31818152D02*
X76376785Y-31913390D01*
X76376785Y-31913390D02*
X76424404Y-31961009D01*
X76424404Y-31961009D02*
X76519642Y-32008628D01*
X76519642Y-32008628D02*
X76900594Y-32008628D01*
X75472023Y-31484819D02*
X75662499Y-31484819D01*
X75662499Y-31484819D02*
X75757737Y-31532438D01*
X75757737Y-31532438D02*
X75805356Y-31580057D01*
X75805356Y-31580057D02*
X75900594Y-31722914D01*
X75900594Y-31722914D02*
X75948213Y-31913390D01*
X75948213Y-31913390D02*
X75948213Y-32294342D01*
X75948213Y-32294342D02*
X75900594Y-32389580D01*
X75900594Y-32389580D02*
X75852975Y-32437200D01*
X75852975Y-32437200D02*
X75757737Y-32484819D01*
X75757737Y-32484819D02*
X75567261Y-32484819D01*
X75567261Y-32484819D02*
X75472023Y-32437200D01*
X75472023Y-32437200D02*
X75424404Y-32389580D01*
X75424404Y-32389580D02*
X75376785Y-32294342D01*
X75376785Y-32294342D02*
X75376785Y-32056247D01*
X75376785Y-32056247D02*
X75424404Y-31961009D01*
X75424404Y-31961009D02*
X75472023Y-31913390D01*
X75472023Y-31913390D02*
X75567261Y-31865771D01*
X75567261Y-31865771D02*
X75757737Y-31865771D01*
X75757737Y-31865771D02*
X75852975Y-31913390D01*
X75852975Y-31913390D02*
X75900594Y-31961009D01*
X75900594Y-31961009D02*
X75948213Y-32056247D01*
X69516666Y-29124819D02*
X69849999Y-28648628D01*
X70088094Y-29124819D02*
X70088094Y-28124819D01*
X70088094Y-28124819D02*
X69707142Y-28124819D01*
X69707142Y-28124819D02*
X69611904Y-28172438D01*
X69611904Y-28172438D02*
X69564285Y-28220057D01*
X69564285Y-28220057D02*
X69516666Y-28315295D01*
X69516666Y-28315295D02*
X69516666Y-28458152D01*
X69516666Y-28458152D02*
X69564285Y-28553390D01*
X69564285Y-28553390D02*
X69611904Y-28601009D01*
X69611904Y-28601009D02*
X69707142Y-28648628D01*
X69707142Y-28648628D02*
X70088094Y-28648628D01*
X68945237Y-28553390D02*
X69040475Y-28505771D01*
X69040475Y-28505771D02*
X69088094Y-28458152D01*
X69088094Y-28458152D02*
X69135713Y-28362914D01*
X69135713Y-28362914D02*
X69135713Y-28315295D01*
X69135713Y-28315295D02*
X69088094Y-28220057D01*
X69088094Y-28220057D02*
X69040475Y-28172438D01*
X69040475Y-28172438D02*
X68945237Y-28124819D01*
X68945237Y-28124819D02*
X68754761Y-28124819D01*
X68754761Y-28124819D02*
X68659523Y-28172438D01*
X68659523Y-28172438D02*
X68611904Y-28220057D01*
X68611904Y-28220057D02*
X68564285Y-28315295D01*
X68564285Y-28315295D02*
X68564285Y-28362914D01*
X68564285Y-28362914D02*
X68611904Y-28458152D01*
X68611904Y-28458152D02*
X68659523Y-28505771D01*
X68659523Y-28505771D02*
X68754761Y-28553390D01*
X68754761Y-28553390D02*
X68945237Y-28553390D01*
X68945237Y-28553390D02*
X69040475Y-28601009D01*
X69040475Y-28601009D02*
X69088094Y-28648628D01*
X69088094Y-28648628D02*
X69135713Y-28743866D01*
X69135713Y-28743866D02*
X69135713Y-28934342D01*
X69135713Y-28934342D02*
X69088094Y-29029580D01*
X69088094Y-29029580D02*
X69040475Y-29077200D01*
X69040475Y-29077200D02*
X68945237Y-29124819D01*
X68945237Y-29124819D02*
X68754761Y-29124819D01*
X68754761Y-29124819D02*
X68659523Y-29077200D01*
X68659523Y-29077200D02*
X68611904Y-29029580D01*
X68611904Y-29029580D02*
X68564285Y-28934342D01*
X68564285Y-28934342D02*
X68564285Y-28743866D01*
X68564285Y-28743866D02*
X68611904Y-28648628D01*
X68611904Y-28648628D02*
X68659523Y-28601009D01*
X68659523Y-28601009D02*
X68754761Y-28553390D01*
%TO.C,R6*%
D11*
X75907776Y-30077500D02*
X76417224Y-30077500D01*
X75907776Y-31122500D02*
X76417224Y-31122500D01*
%TO.C,R8*%
X69604724Y-29577500D02*
X69095276Y-29577500D01*
X69604724Y-30622500D02*
X69095276Y-30622500D01*
%TD*%
M02*
