%TF.GenerationSoftware,KiCad,Pcbnew,10.0.1*%
%TF.CreationDate,2026-05-05T15:24:40-05:00*%
%TF.ProjectId,ProjectBackup6AM,50726f6a-6563-4744-9261-636b75703641,V1*%
%TF.SameCoordinates,Original*%
%TF.FileFunction,Copper,L2,Bot*%
%TF.FilePolarity,Positive*%
%FSLAX46Y46*%
G04 Gerber Fmt 4.6, Leading zero omitted, Abs format (unit mm)*
G04 Created by KiCad (PCBNEW 10.0.1) date 2026-05-05 15:24:40*
%MOMM*%
%LPD*%
G01*
G04 APERTURE LIST*
G04 Aperture macros list*
%AMRoundRect*
0 Rectangle with rounded corners*
0 $1 Rounding radius*
0 $2 $3 $4 $5 $6 $7 $8 $9 X,Y pos of 4 corners*
0 Add a 4 corners polygon primitive as box body*
4,1,4,$2,$3,$4,$5,$6,$7,$8,$9,$2,$3,0*
0 Add four circle primitives for the rounded corners*
1,1,$1+$1,$2,$3*
1,1,$1+$1,$4,$5*
1,1,$1+$1,$6,$7*
1,1,$1+$1,$8,$9*
0 Add four rect primitives between the rounded corners*
20,1,$1+$1,$2,$3,$4,$5,0*
20,1,$1+$1,$4,$5,$6,$7,0*
20,1,$1+$1,$6,$7,$8,$9,0*
20,1,$1+$1,$8,$9,$2,$3,0*%
G04 Aperture macros list end*
%TA.AperFunction,ComponentPad*%
%ADD10C,1.800000*%
%TD*%
%TA.AperFunction,ComponentPad*%
%ADD11O,1.000000X2.100000*%
%TD*%
%TA.AperFunction,ComponentPad*%
%ADD12O,1.000000X1.800000*%
%TD*%
%TA.AperFunction,ComponentPad*%
%ADD13C,2.000000*%
%TD*%
%TA.AperFunction,ComponentPad*%
%ADD14C,1.500000*%
%TD*%
%TA.AperFunction,SMDPad,CuDef*%
%ADD15RoundRect,0.237500X-0.250000X-0.237500X0.250000X-0.237500X0.250000X0.237500X-0.250000X0.237500X0*%
%TD*%
%TA.AperFunction,SMDPad,CuDef*%
%ADD16RoundRect,0.237500X0.250000X0.237500X-0.250000X0.237500X-0.250000X-0.237500X0.250000X-0.237500X0*%
%TD*%
%TA.AperFunction,ViaPad*%
%ADD17C,0.609600*%
%TD*%
%TA.AperFunction,Conductor*%
%ADD18C,0.381000*%
%TD*%
%TA.AperFunction,Conductor*%
%ADD19C,0.254000*%
%TD*%
%TA.AperFunction,Conductor*%
%ADD20C,0.200000*%
%TD*%
G04 APERTURE END LIST*
D10*
%TO.P,U4,1,GND_1*%
%TO.N,GND*%
X39110000Y-65200000D03*
%TO.P,U4,2,5V_2*%
%TO.N,+5V*%
X41650000Y-65200000D03*
%TO.P,U4,3,SDA_3*%
%TO.N,/LogicLevelConverter/HV1*%
X44190000Y-65200000D03*
%TO.P,U4,4,SCL_4*%
%TO.N,/LogicLevelConverter/HV2*%
X46730000Y-65200000D03*
%TD*%
D11*
%TO.P,J2,SH1,SHIELD_SH1*%
%TO.N,GND*%
X78279250Y-26567500D03*
%TO.P,J2,SH2,SHIELD__1_SH2*%
X69639250Y-26567500D03*
D12*
%TO.P,J2,SH3,SHIELD__2_SH3*%
X78279250Y-22387500D03*
%TO.P,J2,SH4,SHIELD__3_SH4*%
X69639250Y-22387500D03*
%TD*%
D13*
%TO.P,U8,1,GND_1*%
%TO.N,GND*%
X57250000Y-31440000D03*
%TO.P,U8,2,3.3V_2*%
%TO.N,+3.3V*%
X57250000Y-33980000D03*
%TO.P,U8,3,LCD_SCK_3*%
%TO.N,/ESP32-S3-N16R8/LCD_SCK*%
X57250000Y-36520000D03*
%TO.P,U8,4,LCD_MOSI_4*%
%TO.N,/ESP32-S3-N16R8/LCD_MOSI*%
X57250000Y-39060000D03*
%TO.P,U8,5,LCD_RST_5*%
%TO.N,/ESP32-S3-N16R8/LCD_RST*%
X57250000Y-41600000D03*
%TO.P,U8,6,LCD_DC_6*%
%TO.N,/ESP32-S3-N16R8/LCD_DC*%
X57250000Y-44140000D03*
%TO.P,U8,7,LCD_CS_7*%
%TO.N,/ESP32-S3-N16R8/LCD_CS*%
X57250000Y-46680000D03*
%TO.P,U8,8,LCD_BL_8*%
%TO.N,/ESP32-S3-N16R8/LCD_BL*%
X57250000Y-49220000D03*
%TD*%
D14*
%TO.P,J1,*%
%TO.N,*%
X74810000Y-68043028D03*
X77350000Y-68043028D03*
%TD*%
D13*
%TO.P,U7,1,EP_BUSY_1*%
%TO.N,/ESP32-S3-N16R8/EP_BUSY*%
X49040000Y-58500000D03*
%TO.P,U7,2,EP_RES_2*%
%TO.N,/ESP32-S3-N16R8/EP_RST*%
X46500000Y-58500000D03*
%TO.P,U7,3,EP_DC_3*%
%TO.N,/ESP32-S3-N16R8/EP_DC*%
X43960000Y-58500000D03*
%TO.P,U7,4,EP_CS_4*%
%TO.N,/ESP32-S3-N16R8/EP_CS*%
X41420000Y-58500000D03*
%TO.P,U7,5,EP_SCK_5*%
%TO.N,/ESP32-S3-N16R8/EP_SCK*%
X38880000Y-58500000D03*
%TO.P,U7,6,EP_SDI_6*%
%TO.N,/ESP32-S3-N16R8/EP_MOSI*%
X36340000Y-58500000D03*
%TO.P,U7,7,GND_7*%
%TO.N,GND*%
X33800000Y-58500000D03*
%TO.P,U7,8,3.3V_8*%
%TO.N,+3.3V*%
X31260000Y-58500000D03*
%TD*%
D15*
%TO.P,R6,1*%
%TO.N,Net-(J2-CC1)*%
X75250000Y-30600000D03*
%TO.P,R6,2*%
%TO.N,GND*%
X77075000Y-30600000D03*
%TD*%
D16*
%TO.P,R8,1*%
%TO.N,Net-(J2-CC2)*%
X70262500Y-30100000D03*
%TO.P,R8,2*%
%TO.N,GND*%
X68437500Y-30100000D03*
%TD*%
D17*
%TO.N,+5VA*%
X77450000Y-28900000D03*
X70850000Y-28500000D03*
%TO.N,+3.3V*%
X59350000Y-63000000D03*
X57550000Y-62900000D03*
%TO.N,/Power Circuitry/ *%
X59750000Y-27700000D03*
X64800000Y-27250000D03*
%TO.N,/ESP32-S3-N16R8/WAKE_BTN*%
X52650000Y-30100000D03*
X51850000Y-40800000D03*
%TO.N,Net-(U3-SW)*%
X73850000Y-61700000D03*
X71650000Y-68700000D03*
%TO.N,/ESP32-S3-N16R8/KEY_SCL*%
X61550000Y-31300000D03*
X61550000Y-36500000D03*
%TO.N,Net-(J2-CC1)*%
X75650000Y-29000000D03*
%TO.N,/ESP32-S3-N16R8/USB_D+*%
X69050000Y-31600000D03*
X47650000Y-53300000D03*
%TO.N,/ESP32-S3-N16R8/USB_D-*%
X72908375Y-28758375D03*
X51950000Y-52400000D03*
X74750000Y-28800000D03*
X68050000Y-31600000D03*
%TO.N,Net-(J2-CC2)*%
X71650000Y-29100000D03*
%TO.N,/ESP32-S3-N16R8/LCD_RST*%
X51615000Y-42065000D03*
X55050000Y-41700000D03*
%TO.N,/ESP32-S3-N16R8/LCD_DC*%
X51950000Y-47200000D03*
%TO.N,/ESP32-S3-N16R8/LCD_BL*%
X40950000Y-32300000D03*
%TO.N,/ESP32-S3-N16R8/RST*%
X34075000Y-54968076D03*
X29050000Y-60400000D03*
%TO.N,/ESP32-S3-N16R8/EP_RST*%
X41264000Y-54600000D03*
%TO.N,/ESP32-S3-N16R8/EP_MOSI*%
X38611385Y-54700000D03*
%TD*%
%TO.N,+5VA*%
D18*
X71350000Y-28000000D02*
X76550000Y-28000000D01*
X76550000Y-28000000D02*
X77450000Y-28900000D01*
X70850000Y-28500000D02*
X71350000Y-28000000D01*
%TO.N,+3.3V*%
X59350000Y-63000000D02*
X57650000Y-63000000D01*
X57650000Y-63000000D02*
X57550000Y-62900000D01*
%TO.N,/Power Circuitry/ *%
D19*
X59750000Y-27700000D02*
X59950000Y-27700000D01*
X59950000Y-27700000D02*
X60400000Y-27250000D01*
X60400000Y-27250000D02*
X64800000Y-27250000D01*
%TO.N,/ESP32-S3-N16R8/WAKE_BTN*%
X51850000Y-40800000D02*
X51850000Y-30900000D01*
X51850000Y-30900000D02*
X52650000Y-30100000D01*
%TO.N,Net-(U3-SW)*%
D18*
X73850000Y-61700000D02*
X71650000Y-63900000D01*
X71650000Y-63900000D02*
X71650000Y-68700000D01*
%TO.N,/ESP32-S3-N16R8/KEY_SCL*%
D19*
X61550000Y-36500000D02*
X61550000Y-31300000D01*
X61550000Y-31300000D02*
X61550000Y-31200000D01*
%TO.N,Net-(J2-CC1)*%
X75650000Y-30200000D02*
X75250000Y-30600000D01*
X75650000Y-29000000D02*
X75650000Y-30200000D01*
%TO.N,/ESP32-S3-N16R8/USB_D+*%
D20*
X62850000Y-53300000D02*
X47650000Y-53300000D01*
X69050000Y-31600000D02*
X69050000Y-47100000D01*
X69050000Y-47100000D02*
X62850000Y-53300000D01*
%TO.N,/ESP32-S3-N16R8/USB_D-*%
X68050000Y-46500000D02*
X62150000Y-52400000D01*
X68050000Y-31600000D02*
X68050000Y-46500000D01*
X72950000Y-28800000D02*
X72908375Y-28758375D01*
X51950000Y-52400000D02*
X51950000Y-52300000D01*
X74750000Y-28800000D02*
X72950000Y-28800000D01*
X62150000Y-52400000D02*
X51950000Y-52400000D01*
%TO.N,Net-(J2-CC2)*%
D19*
X70650000Y-30100000D02*
X70262500Y-30100000D01*
X71650000Y-29100000D02*
X70650000Y-30100000D01*
%TO.N,/ESP32-S3-N16R8/LCD_RST*%
X51615000Y-42065000D02*
X54685000Y-42065000D01*
X54685000Y-42065000D02*
X55050000Y-41700000D01*
%TO.N,/ESP32-S3-N16R8/LCD_DC*%
X54190000Y-47200000D02*
X51950000Y-47200000D01*
X57250000Y-44140000D02*
X54190000Y-47200000D01*
%TO.N,/ESP32-S3-N16R8/LCD_BL*%
X49870000Y-49220000D02*
X57250000Y-49220000D01*
X48950000Y-48300000D02*
X49870000Y-49220000D01*
X48850000Y-48300000D02*
X48950000Y-48300000D01*
X48850000Y-40200000D02*
X48850000Y-48300000D01*
X40950000Y-32300000D02*
X48850000Y-40200000D01*
%TO.N,/ESP32-S3-N16R8/RST*%
X29050000Y-60400000D02*
X29050000Y-56800000D01*
X29050000Y-56800000D02*
X30881924Y-54968076D01*
X30881924Y-54968076D02*
X34075000Y-54968076D01*
D20*
X34068076Y-54975000D02*
X34075000Y-54968076D01*
%TO.N,/ESP32-S3-N16R8/EP_RST*%
D19*
X42600000Y-54600000D02*
X41264000Y-54600000D01*
X46500000Y-58500000D02*
X42600000Y-54600000D01*
%TO.N,/ESP32-S3-N16R8/EP_MOSI*%
X36340000Y-58500000D02*
X38611385Y-56228615D01*
X38611385Y-56228615D02*
X38611385Y-54700000D01*
D20*
X38511385Y-54800000D02*
X38611385Y-54700000D01*
%TD*%
%TA.AperFunction,Conductor*%
%TO.N,GND*%
G36*
X68730649Y-21320185D02*
G01*
X68776404Y-21372989D01*
X68786348Y-21442147D01*
X68766712Y-21493391D01*
X68753064Y-21513815D01*
X68753057Y-21513828D01*
X68677680Y-21695806D01*
X68677677Y-21695818D01*
X68639250Y-21889004D01*
X68639250Y-22137500D01*
X69339250Y-22137500D01*
X69339250Y-22637500D01*
X68639250Y-22637500D01*
X68639250Y-22885995D01*
X68677677Y-23079181D01*
X68677680Y-23079193D01*
X68753057Y-23261171D01*
X68753064Y-23261184D01*
X68862498Y-23424962D01*
X68862501Y-23424966D01*
X69001783Y-23564248D01*
X69001787Y-23564251D01*
X69165565Y-23673685D01*
X69165578Y-23673692D01*
X69347558Y-23749069D01*
X69389250Y-23757362D01*
X69389250Y-22954488D01*
X69399190Y-22971705D01*
X69455045Y-23027560D01*
X69523454Y-23067056D01*
X69599754Y-23087500D01*
X69678746Y-23087500D01*
X69755046Y-23067056D01*
X69823455Y-23027560D01*
X69879310Y-22971705D01*
X69889250Y-22954488D01*
X69889250Y-23757362D01*
X69930940Y-23749069D01*
X69930942Y-23749069D01*
X70112921Y-23673692D01*
X70112934Y-23673685D01*
X70276712Y-23564251D01*
X70276716Y-23564248D01*
X70415998Y-23424966D01*
X70416001Y-23424962D01*
X70525435Y-23261184D01*
X70525442Y-23261171D01*
X70600819Y-23079193D01*
X70600822Y-23079181D01*
X70639249Y-22885995D01*
X70639250Y-22885992D01*
X70639250Y-22637500D01*
X69939250Y-22637500D01*
X69939250Y-22137500D01*
X70639250Y-22137500D01*
X70639250Y-21889008D01*
X70639249Y-21889004D01*
X70600822Y-21695818D01*
X70600819Y-21695806D01*
X70525442Y-21513828D01*
X70525435Y-21513815D01*
X70511788Y-21493391D01*
X70490910Y-21426714D01*
X70509394Y-21359333D01*
X70561373Y-21312643D01*
X70614890Y-21300500D01*
X77303610Y-21300500D01*
X77370649Y-21320185D01*
X77416404Y-21372989D01*
X77426348Y-21442147D01*
X77406712Y-21493391D01*
X77393064Y-21513815D01*
X77393057Y-21513828D01*
X77317680Y-21695806D01*
X77317677Y-21695818D01*
X77279250Y-21889004D01*
X77279250Y-22137500D01*
X77979250Y-22137500D01*
X77979250Y-22637500D01*
X77279250Y-22637500D01*
X77279250Y-22885995D01*
X77317677Y-23079181D01*
X77317680Y-23079193D01*
X77393057Y-23261171D01*
X77393064Y-23261184D01*
X77502498Y-23424962D01*
X77502501Y-23424966D01*
X77641783Y-23564248D01*
X77641787Y-23564251D01*
X77805565Y-23673685D01*
X77805578Y-23673692D01*
X77987558Y-23749069D01*
X78029250Y-23757362D01*
X78029250Y-22954488D01*
X78039190Y-22971705D01*
X78095045Y-23027560D01*
X78163454Y-23067056D01*
X78239754Y-23087500D01*
X78318746Y-23087500D01*
X78395046Y-23067056D01*
X78463455Y-23027560D01*
X78519310Y-22971705D01*
X78529250Y-22954488D01*
X78529250Y-23757362D01*
X78570940Y-23749069D01*
X78570942Y-23749069D01*
X78752921Y-23673692D01*
X78752934Y-23673685D01*
X78916712Y-23564251D01*
X78916716Y-23564248D01*
X79055998Y-23424966D01*
X79056001Y-23424962D01*
X79165435Y-23261184D01*
X79165442Y-23261171D01*
X79240819Y-23079193D01*
X79240822Y-23079181D01*
X79279249Y-22885995D01*
X79279250Y-22885992D01*
X79279250Y-22637500D01*
X78579250Y-22637500D01*
X78579250Y-22137500D01*
X79279250Y-22137500D01*
X79279250Y-21889008D01*
X79279249Y-21889004D01*
X79240822Y-21695818D01*
X79240819Y-21695806D01*
X79165442Y-21513828D01*
X79165435Y-21513815D01*
X79151788Y-21493391D01*
X79130910Y-21426714D01*
X79149394Y-21359333D01*
X79201373Y-21312643D01*
X79254890Y-21300500D01*
X79425500Y-21300500D01*
X79492539Y-21320185D01*
X79538294Y-21372989D01*
X79549500Y-21424500D01*
X79549500Y-70975500D01*
X79529815Y-71042539D01*
X79477011Y-71088294D01*
X79425500Y-71099500D01*
X28674500Y-71099500D01*
X28607461Y-71079815D01*
X28561706Y-71027011D01*
X28550500Y-70975500D01*
X28550500Y-68620680D01*
X70844700Y-68620680D01*
X70844700Y-68779319D01*
X70875644Y-68934889D01*
X70875647Y-68934898D01*
X70936348Y-69081446D01*
X70936355Y-69081459D01*
X71024481Y-69213348D01*
X71024484Y-69213352D01*
X71136647Y-69325515D01*
X71136651Y-69325518D01*
X71268540Y-69413644D01*
X71268553Y-69413651D01*
X71378464Y-69459176D01*
X71415103Y-69474353D01*
X71415105Y-69474353D01*
X71415110Y-69474355D01*
X71570680Y-69505299D01*
X71570684Y-69505300D01*
X71570685Y-69505300D01*
X71729316Y-69505300D01*
X71729317Y-69505299D01*
X71781175Y-69494984D01*
X71884889Y-69474355D01*
X71884892Y-69474353D01*
X71884897Y-69474353D01*
X72031453Y-69413648D01*
X72163349Y-69325518D01*
X72275518Y-69213349D01*
X72363648Y-69081453D01*
X72424353Y-68934897D01*
X72455300Y-68779315D01*
X72455300Y-68620685D01*
X72425530Y-68471018D01*
X72424355Y-68465110D01*
X72424352Y-68465101D01*
X72363651Y-68318554D01*
X72363650Y-68318553D01*
X72363648Y-68318547D01*
X72363642Y-68318538D01*
X72361894Y-68315921D01*
X72361399Y-68314341D01*
X72360775Y-68313173D01*
X72360996Y-68313054D01*
X72341020Y-68249242D01*
X72341000Y-68247036D01*
X72341000Y-67944605D01*
X73559500Y-67944605D01*
X73559500Y-68141450D01*
X73590290Y-68335854D01*
X73651117Y-68523057D01*
X73740475Y-68698431D01*
X73740476Y-68698433D01*
X73856172Y-68857674D01*
X73995354Y-68996856D01*
X74154595Y-69112552D01*
X74237455Y-69154771D01*
X74329970Y-69201910D01*
X74329972Y-69201910D01*
X74329975Y-69201912D01*
X74430317Y-69234515D01*
X74517173Y-69262737D01*
X74711578Y-69293528D01*
X74711583Y-69293528D01*
X74908422Y-69293528D01*
X75102826Y-69262737D01*
X75290025Y-69201912D01*
X75465405Y-69112552D01*
X75624646Y-68996856D01*
X75763828Y-68857674D01*
X75879524Y-68698433D01*
X75968884Y-68523053D01*
X75969515Y-68521815D01*
X76017489Y-68471018D01*
X76085310Y-68454223D01*
X76151445Y-68476760D01*
X76190485Y-68521815D01*
X76280474Y-68698431D01*
X76315234Y-68746274D01*
X76396172Y-68857674D01*
X76535354Y-68996856D01*
X76694595Y-69112552D01*
X76777455Y-69154771D01*
X76869970Y-69201910D01*
X76869972Y-69201910D01*
X76869975Y-69201912D01*
X76970317Y-69234515D01*
X77057173Y-69262737D01*
X77251578Y-69293528D01*
X77251583Y-69293528D01*
X77448422Y-69293528D01*
X77642826Y-69262737D01*
X77830025Y-69201912D01*
X78005405Y-69112552D01*
X78164646Y-68996856D01*
X78303828Y-68857674D01*
X78419524Y-68698433D01*
X78508884Y-68523053D01*
X78569709Y-68335854D01*
X78573116Y-68314341D01*
X78600500Y-68141450D01*
X78600500Y-67944605D01*
X78569709Y-67750201D01*
X78508882Y-67562998D01*
X78419523Y-67387622D01*
X78303828Y-67228382D01*
X78164646Y-67089200D01*
X78005405Y-66973504D01*
X77830029Y-66884145D01*
X77642826Y-66823318D01*
X77448422Y-66792528D01*
X77448417Y-66792528D01*
X77251583Y-66792528D01*
X77251578Y-66792528D01*
X77057173Y-66823318D01*
X76869970Y-66884145D01*
X76694594Y-66973504D01*
X76603741Y-67039513D01*
X76535354Y-67089200D01*
X76535352Y-67089202D01*
X76535351Y-67089202D01*
X76396174Y-67228379D01*
X76396174Y-67228380D01*
X76396172Y-67228382D01*
X76346485Y-67296769D01*
X76280476Y-67387622D01*
X76190485Y-67564241D01*
X76142511Y-67615037D01*
X76074690Y-67631832D01*
X76008555Y-67609295D01*
X75969515Y-67564241D01*
X75879523Y-67387622D01*
X75763828Y-67228382D01*
X75624646Y-67089200D01*
X75465405Y-66973504D01*
X75290029Y-66884145D01*
X75102826Y-66823318D01*
X74908422Y-66792528D01*
X74908417Y-66792528D01*
X74711583Y-66792528D01*
X74711578Y-66792528D01*
X74517173Y-66823318D01*
X74329970Y-66884145D01*
X74154594Y-66973504D01*
X74063741Y-67039513D01*
X73995354Y-67089200D01*
X73995352Y-67089202D01*
X73995351Y-67089202D01*
X73856174Y-67228379D01*
X73856174Y-67228380D01*
X73856172Y-67228382D01*
X73806485Y-67296769D01*
X73740476Y-67387622D01*
X73651117Y-67562998D01*
X73590290Y-67750201D01*
X73559500Y-67944605D01*
X72341000Y-67944605D01*
X72341000Y-64924975D01*
X73310000Y-64924975D01*
X73310000Y-65161080D01*
X73346934Y-65394275D01*
X73419897Y-65618830D01*
X73527087Y-65829202D01*
X73587338Y-65912132D01*
X73587340Y-65912133D01*
X74410000Y-65089473D01*
X74410000Y-65095689D01*
X74437259Y-65197422D01*
X74489920Y-65288634D01*
X74564394Y-65363108D01*
X74655606Y-65415769D01*
X74757339Y-65443028D01*
X74763554Y-65443028D01*
X73940893Y-66265686D01*
X74023828Y-66325942D01*
X74234197Y-66433130D01*
X74458752Y-66506093D01*
X74458751Y-66506093D01*
X74691948Y-66543028D01*
X74928052Y-66543028D01*
X75161247Y-66506093D01*
X75385802Y-66433130D01*
X75596163Y-66325946D01*
X75596169Y-66325942D01*
X75679104Y-66265686D01*
X75679105Y-66265686D01*
X74856446Y-65443028D01*
X74862661Y-65443028D01*
X74964394Y-65415769D01*
X75055606Y-65363108D01*
X75130080Y-65288634D01*
X75182741Y-65197422D01*
X75210000Y-65095689D01*
X75210000Y-65089475D01*
X76032658Y-65912133D01*
X76032658Y-65912132D01*
X76092914Y-65829197D01*
X76092918Y-65829191D01*
X76200102Y-65618830D01*
X76273065Y-65394275D01*
X76274203Y-65389539D01*
X76275657Y-65389888D01*
X76302727Y-65332765D01*
X76362034Y-65295826D01*
X76431896Y-65296814D01*
X76490135Y-65335415D01*
X76509844Y-65367833D01*
X76551983Y-65469568D01*
X76551990Y-65469581D01*
X76650535Y-65617062D01*
X76650538Y-65617066D01*
X76775961Y-65742489D01*
X76775965Y-65742492D01*
X76923446Y-65841037D01*
X76923459Y-65841044D01*
X77046363Y-65891951D01*
X77087334Y-65908922D01*
X77087336Y-65908922D01*
X77087341Y-65908924D01*
X77261304Y-65943527D01*
X77261307Y-65943528D01*
X77261309Y-65943528D01*
X77438693Y-65943528D01*
X77438694Y-65943527D01*
X77536362Y-65924100D01*
X77612658Y-65908924D01*
X77612661Y-65908922D01*
X77612666Y-65908922D01*
X77776547Y-65841041D01*
X77924035Y-65742492D01*
X78049464Y-65617063D01*
X78148013Y-65469575D01*
X78215894Y-65305694D01*
X78217661Y-65296814D01*
X78244660Y-65161080D01*
X78250500Y-65131719D01*
X78250500Y-64954337D01*
X78250500Y-64954334D01*
X78250499Y-64954332D01*
X78215896Y-64780369D01*
X78215893Y-64780360D01*
X78148016Y-64616487D01*
X78148009Y-64616474D01*
X78049464Y-64468993D01*
X78049461Y-64468989D01*
X77924038Y-64343566D01*
X77924034Y-64343563D01*
X77776553Y-64245018D01*
X77776540Y-64245011D01*
X77612667Y-64177134D01*
X77612658Y-64177131D01*
X77438694Y-64142528D01*
X77438691Y-64142528D01*
X77261309Y-64142528D01*
X77261306Y-64142528D01*
X77087341Y-64177131D01*
X77087332Y-64177134D01*
X76923459Y-64245011D01*
X76923446Y-64245018D01*
X76775965Y-64343563D01*
X76775961Y-64343566D01*
X76650538Y-64468989D01*
X76650535Y-64468993D01*
X76551990Y-64616474D01*
X76551985Y-64616483D01*
X76509844Y-64718223D01*
X76466003Y-64772626D01*
X76399709Y-64794691D01*
X76332010Y-64777412D01*
X76284399Y-64726275D01*
X76274803Y-64696372D01*
X76274203Y-64696517D01*
X76273065Y-64691780D01*
X76200102Y-64467225D01*
X76092914Y-64256856D01*
X76032658Y-64173922D01*
X76032658Y-64173921D01*
X75210000Y-64996580D01*
X75210000Y-64990367D01*
X75182741Y-64888634D01*
X75130080Y-64797422D01*
X75055606Y-64722948D01*
X74964394Y-64670287D01*
X74862661Y-64643028D01*
X74856447Y-64643028D01*
X75679105Y-63820368D01*
X75679104Y-63820366D01*
X75596174Y-63760115D01*
X75385802Y-63652925D01*
X75161247Y-63579962D01*
X75161248Y-63579962D01*
X74928052Y-63543028D01*
X74691948Y-63543028D01*
X74458752Y-63579962D01*
X74234197Y-63652925D01*
X74023830Y-63760112D01*
X73940894Y-63820368D01*
X74763554Y-64643028D01*
X74757339Y-64643028D01*
X74655606Y-64670287D01*
X74564394Y-64722948D01*
X74489920Y-64797422D01*
X74437259Y-64888634D01*
X74410000Y-64990367D01*
X74410000Y-64996582D01*
X73587340Y-64173922D01*
X73527084Y-64256858D01*
X73419897Y-64467225D01*
X73346934Y-64691780D01*
X73310000Y-64924975D01*
X72341000Y-64924975D01*
X72341000Y-64237582D01*
X72360685Y-64170543D01*
X72377314Y-64149906D01*
X74018318Y-62508901D01*
X74079639Y-62475418D01*
X74081672Y-62474994D01*
X74084897Y-62474353D01*
X74231453Y-62413648D01*
X74363349Y-62325518D01*
X74475518Y-62213349D01*
X74563648Y-62081453D01*
X74624353Y-61934897D01*
X74655300Y-61779315D01*
X74655300Y-61620685D01*
X74632306Y-61505084D01*
X74624355Y-61465110D01*
X74624352Y-61465101D01*
X74563651Y-61318553D01*
X74563644Y-61318540D01*
X74475518Y-61186651D01*
X74475515Y-61186647D01*
X74363352Y-61074484D01*
X74363348Y-61074481D01*
X74231459Y-60986355D01*
X74231446Y-60986348D01*
X74084898Y-60925647D01*
X74084889Y-60925644D01*
X73929319Y-60894700D01*
X73929315Y-60894700D01*
X73770685Y-60894700D01*
X73770680Y-60894700D01*
X73615110Y-60925644D01*
X73615101Y-60925647D01*
X73468553Y-60986348D01*
X73468540Y-60986355D01*
X73336651Y-61074481D01*
X73336647Y-61074484D01*
X73224484Y-61186647D01*
X73224481Y-61186651D01*
X73136355Y-61318540D01*
X73136348Y-61318553D01*
X73075648Y-61465098D01*
X73075646Y-61465104D01*
X73075032Y-61468195D01*
X73074263Y-61469663D01*
X73073878Y-61470935D01*
X73073636Y-61470861D01*
X73042645Y-61530105D01*
X73041096Y-61531681D01*
X71113269Y-63459507D01*
X71113263Y-63459514D01*
X71037644Y-63572687D01*
X71037642Y-63572690D01*
X70985556Y-63698438D01*
X70985553Y-63698448D01*
X70959000Y-63831939D01*
X70959000Y-68247036D01*
X70939315Y-68314075D01*
X70938106Y-68315921D01*
X70936357Y-68318538D01*
X70936348Y-68318554D01*
X70875647Y-68465101D01*
X70875644Y-68465110D01*
X70844700Y-68620680D01*
X28550500Y-68620680D01*
X28550500Y-65089818D01*
X37710000Y-65089818D01*
X37710000Y-65310181D01*
X37744473Y-65527835D01*
X37812567Y-65737410D01*
X37912611Y-65933756D01*
X37958932Y-65997513D01*
X38627037Y-65329408D01*
X38644075Y-65392993D01*
X38709901Y-65507007D01*
X38802993Y-65600099D01*
X38917007Y-65665925D01*
X38980590Y-65682962D01*
X38312485Y-66351065D01*
X38312485Y-66351066D01*
X38376243Y-66397388D01*
X38572589Y-66497432D01*
X38782164Y-66565526D01*
X38999819Y-66600000D01*
X39220181Y-66600000D01*
X39437835Y-66565526D01*
X39647410Y-66497432D01*
X39843760Y-66397386D01*
X39907513Y-66351066D01*
X39907514Y-66351066D01*
X39239409Y-65682962D01*
X39302993Y-65665925D01*
X39417007Y-65600099D01*
X39510099Y-65507007D01*
X39575925Y-65392993D01*
X39592962Y-65329409D01*
X40261066Y-65997514D01*
X40261066Y-65997513D01*
X40279372Y-65972319D01*
X40334701Y-65929653D01*
X40404315Y-65923674D01*
X40466110Y-65956279D01*
X40480008Y-65972319D01*
X40581752Y-66112358D01*
X40581756Y-66112363D01*
X40737636Y-66268243D01*
X40737641Y-66268247D01*
X40817058Y-66325946D01*
X40915978Y-66397815D01*
X41044375Y-66463237D01*
X41112393Y-66497895D01*
X41112396Y-66497896D01*
X41217221Y-66531955D01*
X41322049Y-66566015D01*
X41539778Y-66600500D01*
X41539779Y-66600500D01*
X41760221Y-66600500D01*
X41760222Y-66600500D01*
X41977951Y-66566015D01*
X42187606Y-66497895D01*
X42384022Y-66397815D01*
X42562365Y-66268242D01*
X42718242Y-66112365D01*
X42801686Y-65997514D01*
X42819682Y-65972745D01*
X42875011Y-65930079D01*
X42944625Y-65924100D01*
X43006420Y-65956705D01*
X43020318Y-65972745D01*
X43121752Y-66112358D01*
X43121756Y-66112363D01*
X43277636Y-66268243D01*
X43277641Y-66268247D01*
X43357058Y-66325946D01*
X43455978Y-66397815D01*
X43584375Y-66463237D01*
X43652393Y-66497895D01*
X43652396Y-66497896D01*
X43757221Y-66531955D01*
X43862049Y-66566015D01*
X44079778Y-66600500D01*
X44079779Y-66600500D01*
X44300221Y-66600500D01*
X44300222Y-66600500D01*
X44517951Y-66566015D01*
X44727606Y-66497895D01*
X44924022Y-66397815D01*
X45102365Y-66268242D01*
X45258242Y-66112365D01*
X45341686Y-65997514D01*
X45359682Y-65972745D01*
X45415011Y-65930079D01*
X45484625Y-65924100D01*
X45546420Y-65956705D01*
X45560318Y-65972745D01*
X45661752Y-66112358D01*
X45661756Y-66112363D01*
X45817636Y-66268243D01*
X45817641Y-66268247D01*
X45897058Y-66325946D01*
X45995978Y-66397815D01*
X46124375Y-66463237D01*
X46192393Y-66497895D01*
X46192396Y-66497896D01*
X46297221Y-66531955D01*
X46402049Y-66566015D01*
X46619778Y-66600500D01*
X46619779Y-66600500D01*
X46840221Y-66600500D01*
X46840222Y-66600500D01*
X47057951Y-66566015D01*
X47267606Y-66497895D01*
X47464022Y-66397815D01*
X47642365Y-66268242D01*
X47798242Y-66112365D01*
X47927815Y-65934022D01*
X48027895Y-65737606D01*
X48096015Y-65527951D01*
X48130500Y-65310222D01*
X48130500Y-65089778D01*
X48096015Y-64872049D01*
X48030460Y-64670287D01*
X48027896Y-64662396D01*
X48027895Y-64662393D01*
X47993237Y-64594375D01*
X47927815Y-64465978D01*
X47838876Y-64343563D01*
X47798247Y-64287641D01*
X47798243Y-64287636D01*
X47642363Y-64131756D01*
X47642358Y-64131752D01*
X47464025Y-64002187D01*
X47464024Y-64002186D01*
X47464022Y-64002185D01*
X47401096Y-63970122D01*
X47267606Y-63902104D01*
X47267603Y-63902103D01*
X47057952Y-63833985D01*
X46949086Y-63816742D01*
X46840222Y-63799500D01*
X46619778Y-63799500D01*
X46547201Y-63810995D01*
X46402047Y-63833985D01*
X46192396Y-63902103D01*
X46192393Y-63902104D01*
X45995974Y-64002187D01*
X45817641Y-64131752D01*
X45817636Y-64131756D01*
X45661756Y-64287636D01*
X45661752Y-64287641D01*
X45560318Y-64427254D01*
X45504988Y-64469920D01*
X45435375Y-64475899D01*
X45373580Y-64443293D01*
X45359682Y-64427254D01*
X45258247Y-64287641D01*
X45258243Y-64287636D01*
X45102363Y-64131756D01*
X45102358Y-64131752D01*
X44924025Y-64002187D01*
X44924024Y-64002186D01*
X44924022Y-64002185D01*
X44861096Y-63970122D01*
X44727606Y-63902104D01*
X44727603Y-63902103D01*
X44517952Y-63833985D01*
X44409086Y-63816742D01*
X44300222Y-63799500D01*
X44079778Y-63799500D01*
X44007201Y-63810995D01*
X43862047Y-63833985D01*
X43652396Y-63902103D01*
X43652393Y-63902104D01*
X43455974Y-64002187D01*
X43277641Y-64131752D01*
X43277636Y-64131756D01*
X43121756Y-64287636D01*
X43121752Y-64287641D01*
X43020318Y-64427254D01*
X42964988Y-64469920D01*
X42895375Y-64475899D01*
X42833580Y-64443293D01*
X42819682Y-64427254D01*
X42718247Y-64287641D01*
X42718243Y-64287636D01*
X42562363Y-64131756D01*
X42562358Y-64131752D01*
X42384025Y-64002187D01*
X42384024Y-64002186D01*
X42384022Y-64002185D01*
X42321096Y-63970122D01*
X42187606Y-63902104D01*
X42187603Y-63902103D01*
X41977952Y-63833985D01*
X41869086Y-63816742D01*
X41760222Y-63799500D01*
X41539778Y-63799500D01*
X41467201Y-63810995D01*
X41322047Y-63833985D01*
X41112396Y-63902103D01*
X41112393Y-63902104D01*
X40915974Y-64002187D01*
X40737641Y-64131752D01*
X40737636Y-64131756D01*
X40581756Y-64287636D01*
X40480008Y-64427681D01*
X40424678Y-64470346D01*
X40355065Y-64476325D01*
X40293270Y-64443719D01*
X40279371Y-64427680D01*
X40261066Y-64402485D01*
X40261065Y-64402485D01*
X39592962Y-65070589D01*
X39575925Y-65007007D01*
X39510099Y-64892993D01*
X39417007Y-64799901D01*
X39302993Y-64734075D01*
X39239407Y-64717037D01*
X39907513Y-64048932D01*
X39843756Y-64002611D01*
X39647410Y-63902567D01*
X39437835Y-63834473D01*
X39220181Y-63800000D01*
X38999819Y-63800000D01*
X38782164Y-63834473D01*
X38572589Y-63902567D01*
X38376233Y-64002616D01*
X38312485Y-64048931D01*
X38312485Y-64048932D01*
X38980590Y-64717037D01*
X38917007Y-64734075D01*
X38802993Y-64799901D01*
X38709901Y-64892993D01*
X38644075Y-65007007D01*
X38627037Y-65070590D01*
X37958932Y-64402485D01*
X37958931Y-64402485D01*
X37912616Y-64466233D01*
X37812567Y-64662589D01*
X37744473Y-64872164D01*
X37710000Y-65089818D01*
X28550500Y-65089818D01*
X28550500Y-62820680D01*
X56744700Y-62820680D01*
X56744700Y-62979319D01*
X56775644Y-63134889D01*
X56775647Y-63134898D01*
X56836348Y-63281446D01*
X56836355Y-63281459D01*
X56924481Y-63413348D01*
X56924484Y-63413352D01*
X57036647Y-63525515D01*
X57036651Y-63525518D01*
X57168540Y-63613644D01*
X57168553Y-63613651D01*
X57263371Y-63652925D01*
X57315103Y-63674353D01*
X57315105Y-63674353D01*
X57315110Y-63674355D01*
X57470680Y-63705299D01*
X57470684Y-63705300D01*
X57470685Y-63705300D01*
X57629316Y-63705300D01*
X57663813Y-63698438D01*
X57689226Y-63693382D01*
X57713417Y-63691000D01*
X58897036Y-63691000D01*
X58964075Y-63710685D01*
X58965927Y-63711898D01*
X58968540Y-63713644D01*
X58968553Y-63713651D01*
X59078464Y-63759176D01*
X59115103Y-63774353D01*
X59115105Y-63774353D01*
X59115110Y-63774355D01*
X59270680Y-63805299D01*
X59270684Y-63805300D01*
X59270685Y-63805300D01*
X59429316Y-63805300D01*
X59429317Y-63805299D01*
X59481175Y-63794984D01*
X59584889Y-63774355D01*
X59584892Y-63774353D01*
X59584897Y-63774353D01*
X59731453Y-63713648D01*
X59863349Y-63625518D01*
X59975518Y-63513349D01*
X60063648Y-63381453D01*
X60124353Y-63234897D01*
X60155300Y-63079315D01*
X60155300Y-62920685D01*
X60135408Y-62820680D01*
X60124355Y-62765110D01*
X60124352Y-62765101D01*
X60063651Y-62618553D01*
X60063644Y-62618540D01*
X59975518Y-62486651D01*
X59975515Y-62486647D01*
X59863352Y-62374484D01*
X59863348Y-62374481D01*
X59731459Y-62286355D01*
X59731446Y-62286348D01*
X59584898Y-62225647D01*
X59584889Y-62225644D01*
X59429319Y-62194700D01*
X59429315Y-62194700D01*
X59270685Y-62194700D01*
X59270680Y-62194700D01*
X59115110Y-62225644D01*
X59115101Y-62225647D01*
X58968553Y-62286348D01*
X58968540Y-62286355D01*
X58965927Y-62288102D01*
X58964348Y-62288596D01*
X58963172Y-62289225D01*
X58963052Y-62289001D01*
X58899250Y-62308980D01*
X58897036Y-62309000D01*
X58149230Y-62309000D01*
X58082191Y-62289315D01*
X58068266Y-62278094D01*
X58068059Y-62278347D01*
X58063348Y-62274481D01*
X57931459Y-62186355D01*
X57931446Y-62186348D01*
X57784898Y-62125647D01*
X57784889Y-62125644D01*
X57629319Y-62094700D01*
X57629315Y-62094700D01*
X57470685Y-62094700D01*
X57470680Y-62094700D01*
X57315110Y-62125644D01*
X57315101Y-62125647D01*
X57168553Y-62186348D01*
X57168540Y-62186355D01*
X57036651Y-62274481D01*
X57036647Y-62274484D01*
X56924484Y-62386647D01*
X56924481Y-62386651D01*
X56836355Y-62518540D01*
X56836348Y-62518553D01*
X56775647Y-62665101D01*
X56775644Y-62665110D01*
X56744700Y-62820680D01*
X28550500Y-62820680D01*
X28550500Y-61250330D01*
X28570185Y-61183291D01*
X28622989Y-61137536D01*
X28692147Y-61127592D01*
X28721952Y-61135769D01*
X28815103Y-61174353D01*
X28815105Y-61174353D01*
X28815110Y-61174355D01*
X28970680Y-61205299D01*
X28970684Y-61205300D01*
X28970685Y-61205300D01*
X29129316Y-61205300D01*
X29129317Y-61205299D01*
X29181175Y-61194984D01*
X29284889Y-61174355D01*
X29284892Y-61174353D01*
X29284897Y-61174353D01*
X29431453Y-61113648D01*
X29563349Y-61025518D01*
X29675518Y-60913349D01*
X29763648Y-60781453D01*
X29824353Y-60634897D01*
X29855300Y-60479315D01*
X29855300Y-60320685D01*
X29855024Y-60319298D01*
X29824355Y-60165110D01*
X29824352Y-60165101D01*
X29763651Y-60018554D01*
X29763650Y-60018553D01*
X29763648Y-60018547D01*
X29763641Y-60018536D01*
X29698398Y-59920892D01*
X29677520Y-59854215D01*
X29677500Y-59852002D01*
X29677500Y-59215802D01*
X29697185Y-59148763D01*
X29749989Y-59103008D01*
X29819147Y-59093064D01*
X29882703Y-59122089D01*
X29911985Y-59159507D01*
X29976657Y-59286433D01*
X30115483Y-59477510D01*
X30282490Y-59644517D01*
X30473567Y-59783343D01*
X30572991Y-59834002D01*
X30684003Y-59890566D01*
X30684005Y-59890566D01*
X30684008Y-59890568D01*
X30804412Y-59929689D01*
X30908631Y-59963553D01*
X31141903Y-60000500D01*
X31141908Y-60000500D01*
X31378097Y-60000500D01*
X31611368Y-59963553D01*
X31612870Y-59963065D01*
X31835992Y-59890568D01*
X31837859Y-59889617D01*
X31843719Y-59886630D01*
X32046433Y-59783343D01*
X32237510Y-59644517D01*
X32404517Y-59477510D01*
X32451370Y-59413022D01*
X32455713Y-59408199D01*
X32480150Y-59393142D01*
X32502877Y-59375618D01*
X32510393Y-59374509D01*
X32515199Y-59371549D01*
X32528730Y-59371806D01*
X32557594Y-59367551D01*
X32577340Y-59369105D01*
X33317037Y-58629408D01*
X33334075Y-58692993D01*
X33399901Y-58807007D01*
X33492993Y-58900099D01*
X33607007Y-58965925D01*
X33670590Y-58982962D01*
X32930893Y-59722658D01*
X33013828Y-59782914D01*
X33224197Y-59890102D01*
X33448752Y-59963065D01*
X33448751Y-59963065D01*
X33681948Y-60000000D01*
X33918052Y-60000000D01*
X34151247Y-59963065D01*
X34375802Y-59890102D01*
X34586163Y-59782918D01*
X34586169Y-59782914D01*
X34669104Y-59722658D01*
X34669105Y-59722658D01*
X33929408Y-58982962D01*
X33992993Y-58965925D01*
X34107007Y-58900099D01*
X34200099Y-58807007D01*
X34265925Y-58692993D01*
X34282962Y-58629408D01*
X35022657Y-59369104D01*
X35042404Y-59367550D01*
X35110781Y-59381914D01*
X35152451Y-59418282D01*
X35195483Y-59477510D01*
X35362490Y-59644517D01*
X35553567Y-59783343D01*
X35652991Y-59834002D01*
X35764003Y-59890566D01*
X35764005Y-59890566D01*
X35764008Y-59890568D01*
X35884412Y-59929689D01*
X35988631Y-59963553D01*
X36221903Y-60000500D01*
X36221908Y-60000500D01*
X36458097Y-60000500D01*
X36691368Y-59963553D01*
X36692870Y-59963065D01*
X36915992Y-59890568D01*
X36917859Y-59889617D01*
X36923719Y-59886630D01*
X37126433Y-59783343D01*
X37317510Y-59644517D01*
X37484517Y-59477510D01*
X37509682Y-59442872D01*
X37565011Y-59400207D01*
X37634625Y-59394228D01*
X37696420Y-59426833D01*
X37710315Y-59442870D01*
X37735483Y-59477510D01*
X37902490Y-59644517D01*
X38093567Y-59783343D01*
X38192991Y-59834002D01*
X38304003Y-59890566D01*
X38304005Y-59890566D01*
X38304008Y-59890568D01*
X38424412Y-59929689D01*
X38528631Y-59963553D01*
X38761903Y-60000500D01*
X38761908Y-60000500D01*
X38998097Y-60000500D01*
X39231368Y-59963553D01*
X39232870Y-59963065D01*
X39455992Y-59890568D01*
X39457859Y-59889617D01*
X39463719Y-59886630D01*
X39666433Y-59783343D01*
X39857510Y-59644517D01*
X40024517Y-59477510D01*
X40049682Y-59442872D01*
X40105011Y-59400207D01*
X40174625Y-59394228D01*
X40236420Y-59426833D01*
X40250315Y-59442870D01*
X40275483Y-59477510D01*
X40442490Y-59644517D01*
X40633567Y-59783343D01*
X40732991Y-59834002D01*
X40844003Y-59890566D01*
X40844005Y-59890566D01*
X40844008Y-59890568D01*
X40964412Y-59929689D01*
X41068631Y-59963553D01*
X41301903Y-60000500D01*
X41301908Y-60000500D01*
X41538097Y-60000500D01*
X41771368Y-59963553D01*
X41772870Y-59963065D01*
X41995992Y-59890568D01*
X41997859Y-59889617D01*
X42003719Y-59886630D01*
X42206433Y-59783343D01*
X42397510Y-59644517D01*
X42564517Y-59477510D01*
X42589682Y-59442872D01*
X42645011Y-59400207D01*
X42714625Y-59394228D01*
X42776420Y-59426833D01*
X42790315Y-59442870D01*
X42815483Y-59477510D01*
X42982490Y-59644517D01*
X43173567Y-59783343D01*
X43272991Y-59834002D01*
X43384003Y-59890566D01*
X43384005Y-59890566D01*
X43384008Y-59890568D01*
X43504412Y-59929689D01*
X43608631Y-59963553D01*
X43841903Y-60000500D01*
X43841908Y-60000500D01*
X44078097Y-60000500D01*
X44311368Y-59963553D01*
X44312870Y-59963065D01*
X44535992Y-59890568D01*
X44537859Y-59889617D01*
X44543719Y-59886630D01*
X44746433Y-59783343D01*
X44937510Y-59644517D01*
X45104517Y-59477510D01*
X45129682Y-59442872D01*
X45185011Y-59400207D01*
X45254625Y-59394228D01*
X45316420Y-59426833D01*
X45330315Y-59442870D01*
X45355483Y-59477510D01*
X45522490Y-59644517D01*
X45713567Y-59783343D01*
X45812991Y-59834002D01*
X45924003Y-59890566D01*
X45924005Y-59890566D01*
X45924008Y-59890568D01*
X46044412Y-59929689D01*
X46148631Y-59963553D01*
X46381903Y-60000500D01*
X46381908Y-60000500D01*
X46618097Y-60000500D01*
X46851368Y-59963553D01*
X46852870Y-59963065D01*
X47075992Y-59890568D01*
X47077859Y-59889617D01*
X47083719Y-59886630D01*
X47286433Y-59783343D01*
X47477510Y-59644517D01*
X47644517Y-59477510D01*
X47669682Y-59442872D01*
X47725011Y-59400207D01*
X47794625Y-59394228D01*
X47856420Y-59426833D01*
X47870315Y-59442870D01*
X47895483Y-59477510D01*
X48062490Y-59644517D01*
X48253567Y-59783343D01*
X48352991Y-59834002D01*
X48464003Y-59890566D01*
X48464005Y-59890566D01*
X48464008Y-59890568D01*
X48584412Y-59929689D01*
X48688631Y-59963553D01*
X48921903Y-60000500D01*
X48921908Y-60000500D01*
X49158097Y-60000500D01*
X49391368Y-59963553D01*
X49392870Y-59963065D01*
X49615992Y-59890568D01*
X49617859Y-59889617D01*
X49623719Y-59886630D01*
X49826433Y-59783343D01*
X50017510Y-59644517D01*
X50184517Y-59477510D01*
X50323343Y-59286433D01*
X50430568Y-59075992D01*
X50503553Y-58851368D01*
X50528637Y-58692993D01*
X50540500Y-58618097D01*
X50540500Y-58381902D01*
X50503553Y-58148631D01*
X50430566Y-57924003D01*
X50323342Y-57713566D01*
X50309999Y-57695201D01*
X50184517Y-57522490D01*
X50017510Y-57355483D01*
X49826433Y-57216657D01*
X49615996Y-57109433D01*
X49391368Y-57036446D01*
X49158097Y-56999500D01*
X49158092Y-56999500D01*
X48921908Y-56999500D01*
X48921903Y-56999500D01*
X48688631Y-57036446D01*
X48464003Y-57109433D01*
X48253566Y-57216657D01*
X48170047Y-57277338D01*
X48062490Y-57355483D01*
X48062488Y-57355485D01*
X48062487Y-57355485D01*
X47895484Y-57522488D01*
X47870318Y-57557127D01*
X47814987Y-57599792D01*
X47745374Y-57605771D01*
X47683579Y-57573165D01*
X47669682Y-57557127D01*
X47644517Y-57522490D01*
X47477510Y-57355483D01*
X47286433Y-57216657D01*
X47075996Y-57109433D01*
X46851368Y-57036446D01*
X46618097Y-56999500D01*
X46618092Y-56999500D01*
X46381908Y-56999500D01*
X46381903Y-56999500D01*
X46148630Y-57036447D01*
X46148627Y-57036447D01*
X46051254Y-57068086D01*
X45981413Y-57070081D01*
X45925255Y-57037836D01*
X44250165Y-55362745D01*
X77209499Y-55362745D01*
X77236418Y-55498072D01*
X77236421Y-55498082D01*
X77289221Y-55625554D01*
X77289228Y-55625567D01*
X77365885Y-55740291D01*
X77365888Y-55740295D01*
X77463454Y-55837861D01*
X77463458Y-55837864D01*
X77578182Y-55914521D01*
X77578195Y-55914528D01*
X77705667Y-55967328D01*
X77705672Y-55967330D01*
X77705676Y-55967330D01*
X77705677Y-55967331D01*
X77841004Y-55994250D01*
X77841007Y-55994250D01*
X77978995Y-55994250D01*
X78070041Y-55976139D01*
X78114328Y-55967330D01*
X78241811Y-55914525D01*
X78356542Y-55837864D01*
X78454114Y-55740292D01*
X78530775Y-55625561D01*
X78583580Y-55498078D01*
X78602035Y-55405299D01*
X78610500Y-55362745D01*
X78610500Y-55224754D01*
X78583581Y-55089427D01*
X78583580Y-55089426D01*
X78583580Y-55089422D01*
X78566170Y-55047391D01*
X78530778Y-54961945D01*
X78530771Y-54961932D01*
X78454114Y-54847208D01*
X78454111Y-54847204D01*
X78356545Y-54749638D01*
X78356541Y-54749635D01*
X78241817Y-54672978D01*
X78241804Y-54672971D01*
X78114332Y-54620171D01*
X78114322Y-54620168D01*
X77978995Y-54593250D01*
X77978993Y-54593250D01*
X77841007Y-54593250D01*
X77841005Y-54593250D01*
X77705677Y-54620168D01*
X77705667Y-54620171D01*
X77578195Y-54672971D01*
X77578182Y-54672978D01*
X77463458Y-54749635D01*
X77463454Y-54749638D01*
X77365888Y-54847204D01*
X77365885Y-54847208D01*
X77289228Y-54961932D01*
X77289221Y-54961945D01*
X77236421Y-55089417D01*
X77236418Y-55089427D01*
X77209500Y-55224754D01*
X77209500Y-55224757D01*
X77209500Y-55362743D01*
X77209500Y-55362745D01*
X77209499Y-55362745D01*
X44250165Y-55362745D01*
X44193766Y-55306346D01*
X43000010Y-54112590D01*
X42964741Y-54089024D01*
X42964737Y-54089021D01*
X42961189Y-54086651D01*
X42897233Y-54043917D01*
X42863784Y-54030062D01*
X42856484Y-54027038D01*
X42856482Y-54027037D01*
X42783035Y-53996614D01*
X42783027Y-53996612D01*
X42661807Y-53972500D01*
X42661803Y-53972500D01*
X41811998Y-53972500D01*
X41744959Y-53952815D01*
X41743108Y-53951602D01*
X41645463Y-53886358D01*
X41645456Y-53886354D01*
X41645453Y-53886352D01*
X41645449Y-53886350D01*
X41645445Y-53886348D01*
X41498898Y-53825647D01*
X41498889Y-53825644D01*
X41343319Y-53794700D01*
X41343315Y-53794700D01*
X41184685Y-53794700D01*
X41184680Y-53794700D01*
X41097924Y-53811957D01*
X41028332Y-53805730D01*
X40973155Y-53762866D01*
X40949911Y-53696977D01*
X40949813Y-53694786D01*
X40932805Y-53220680D01*
X46844700Y-53220680D01*
X46844700Y-53379319D01*
X46875644Y-53534889D01*
X46875647Y-53534898D01*
X46936348Y-53681446D01*
X46936355Y-53681459D01*
X47024481Y-53813348D01*
X47024484Y-53813352D01*
X47136647Y-53925515D01*
X47136651Y-53925518D01*
X47268540Y-54013644D01*
X47268553Y-54013651D01*
X47341623Y-54043917D01*
X47415103Y-54074353D01*
X47415105Y-54074353D01*
X47415110Y-54074355D01*
X47570680Y-54105299D01*
X47570684Y-54105300D01*
X47570685Y-54105300D01*
X47729316Y-54105300D01*
X47729317Y-54105299D01*
X47781175Y-54094984D01*
X47884889Y-54074355D01*
X47884892Y-54074353D01*
X47884897Y-54074353D01*
X48031453Y-54013648D01*
X48072300Y-53986355D01*
X48168414Y-53922134D01*
X48169840Y-53924268D01*
X48223859Y-53901332D01*
X48238202Y-53900500D01*
X62763331Y-53900500D01*
X62763347Y-53900501D01*
X62770943Y-53900501D01*
X62929054Y-53900501D01*
X62929057Y-53900501D01*
X63081785Y-53859577D01*
X63140553Y-53825647D01*
X63218716Y-53780520D01*
X63330520Y-53668716D01*
X63330520Y-53668714D01*
X63340724Y-53658511D01*
X63340728Y-53658506D01*
X64636489Y-52362745D01*
X77209499Y-52362745D01*
X77236418Y-52498072D01*
X77236421Y-52498082D01*
X77289221Y-52625554D01*
X77289228Y-52625567D01*
X77365885Y-52740291D01*
X77365888Y-52740295D01*
X77463454Y-52837861D01*
X77463458Y-52837864D01*
X77578182Y-52914521D01*
X77578195Y-52914528D01*
X77705667Y-52967328D01*
X77705672Y-52967330D01*
X77705676Y-52967330D01*
X77705677Y-52967331D01*
X77841004Y-52994250D01*
X77841007Y-52994250D01*
X77978995Y-52994250D01*
X78070041Y-52976139D01*
X78114328Y-52967330D01*
X78241811Y-52914525D01*
X78356542Y-52837864D01*
X78454114Y-52740292D01*
X78530775Y-52625561D01*
X78583580Y-52498078D01*
X78610500Y-52362743D01*
X78610500Y-52224757D01*
X78610500Y-52224754D01*
X78583581Y-52089427D01*
X78583580Y-52089426D01*
X78583580Y-52089422D01*
X78583578Y-52089417D01*
X78530778Y-51961945D01*
X78530771Y-51961932D01*
X78454114Y-51847208D01*
X78454111Y-51847204D01*
X78356545Y-51749638D01*
X78356541Y-51749635D01*
X78241817Y-51672978D01*
X78241804Y-51672971D01*
X78114332Y-51620171D01*
X78114322Y-51620168D01*
X77978995Y-51593250D01*
X77978993Y-51593250D01*
X77841007Y-51593250D01*
X77841005Y-51593250D01*
X77705677Y-51620168D01*
X77705667Y-51620171D01*
X77578195Y-51672971D01*
X77578182Y-51672978D01*
X77463458Y-51749635D01*
X77463454Y-51749638D01*
X77365888Y-51847204D01*
X77365885Y-51847208D01*
X77289228Y-51961932D01*
X77289221Y-51961945D01*
X77236421Y-52089417D01*
X77236418Y-52089427D01*
X77209500Y-52224754D01*
X77209500Y-52224757D01*
X77209500Y-52362743D01*
X77209500Y-52362745D01*
X77209499Y-52362745D01*
X64636489Y-52362745D01*
X69418713Y-47580521D01*
X69418716Y-47580520D01*
X69530520Y-47468716D01*
X69580639Y-47381904D01*
X69609577Y-47331785D01*
X69650500Y-47179057D01*
X69650500Y-47020943D01*
X69650500Y-32188201D01*
X69670185Y-32121162D01*
X69672168Y-32118437D01*
X69672134Y-32118414D01*
X69763644Y-31981459D01*
X69763644Y-31981458D01*
X69763648Y-31981453D01*
X69824353Y-31834897D01*
X69829230Y-31810382D01*
X69855299Y-31679319D01*
X69855300Y-31679316D01*
X69855300Y-31520684D01*
X69855299Y-31520680D01*
X69824355Y-31365110D01*
X69824352Y-31365101D01*
X69772452Y-31239801D01*
X69764983Y-31170332D01*
X69796259Y-31107853D01*
X69856348Y-31072201D01*
X69899612Y-31068991D01*
X69963323Y-31075500D01*
X70561676Y-31075499D01*
X70561684Y-31075498D01*
X70561687Y-31075498D01*
X70625386Y-31068991D01*
X70662753Y-31065174D01*
X70826516Y-31010908D01*
X70973350Y-30920340D01*
X71095340Y-30798350D01*
X71185908Y-30651516D01*
X71240174Y-30487753D01*
X71245988Y-30430830D01*
X71272383Y-30366141D01*
X71281656Y-30355761D01*
X71706218Y-29931199D01*
X71767539Y-29897716D01*
X71769606Y-29897285D01*
X71884897Y-29874353D01*
X72031453Y-29813648D01*
X72163349Y-29725518D01*
X72275518Y-29613349D01*
X72349509Y-29502612D01*
X72403121Y-29457808D01*
X72472445Y-29449101D01*
X72521502Y-29468401D01*
X72526922Y-29472023D01*
X72526924Y-29472024D01*
X72526928Y-29472026D01*
X72627405Y-29513644D01*
X72673478Y-29532728D01*
X72673480Y-29532728D01*
X72673485Y-29532730D01*
X72829055Y-29563674D01*
X72829059Y-29563675D01*
X72829060Y-29563675D01*
X72987691Y-29563675D01*
X72987692Y-29563674D01*
X73062980Y-29548699D01*
X73143264Y-29532730D01*
X73143267Y-29532728D01*
X73143272Y-29532728D01*
X73289828Y-29472023D01*
X73363970Y-29422483D01*
X73365594Y-29421398D01*
X73432272Y-29400520D01*
X73434485Y-29400500D01*
X74161798Y-29400500D01*
X74228837Y-29420185D01*
X74231562Y-29422168D01*
X74231586Y-29422134D01*
X74368540Y-29513644D01*
X74368552Y-29513651D01*
X74453168Y-29548699D01*
X74506141Y-29570640D01*
X74560544Y-29614480D01*
X74582609Y-29680774D01*
X74565330Y-29748474D01*
X74543334Y-29773630D01*
X74544257Y-29774553D01*
X74417161Y-29901648D01*
X74326593Y-30048481D01*
X74326591Y-30048486D01*
X74309521Y-30100000D01*
X74272326Y-30212247D01*
X74272326Y-30212248D01*
X74272325Y-30212248D01*
X74262000Y-30313315D01*
X74262000Y-30886669D01*
X74262001Y-30886687D01*
X74272325Y-30987752D01*
X74289606Y-31039901D01*
X74326592Y-31151516D01*
X74417160Y-31298350D01*
X74539150Y-31420340D01*
X74685984Y-31510908D01*
X74849747Y-31565174D01*
X74950823Y-31575500D01*
X75549176Y-31575499D01*
X75549184Y-31575498D01*
X75549187Y-31575498D01*
X75604530Y-31569844D01*
X75650253Y-31565174D01*
X75814016Y-31510908D01*
X75960850Y-31420340D01*
X76075175Y-31306014D01*
X76136494Y-31272532D01*
X76206186Y-31277516D01*
X76250534Y-31306017D01*
X76364461Y-31419944D01*
X76364465Y-31419947D01*
X76511188Y-31510448D01*
X76511199Y-31510453D01*
X76674847Y-31564680D01*
X76775851Y-31574999D01*
X77325000Y-31574999D01*
X77374140Y-31574999D01*
X77374154Y-31574998D01*
X77475152Y-31564680D01*
X77638800Y-31510453D01*
X77638811Y-31510448D01*
X77785534Y-31419947D01*
X77785538Y-31419944D01*
X77907444Y-31298038D01*
X77907447Y-31298034D01*
X77997948Y-31151311D01*
X77997953Y-31151300D01*
X78052180Y-30987652D01*
X78062499Y-30886654D01*
X78062500Y-30886641D01*
X78062500Y-30850000D01*
X77325000Y-30850000D01*
X77325000Y-31574999D01*
X76775851Y-31574999D01*
X76824999Y-31574998D01*
X76825000Y-31574998D01*
X76825000Y-30724000D01*
X76844685Y-30656961D01*
X76897489Y-30611206D01*
X76949000Y-30600000D01*
X77075000Y-30600000D01*
X77075000Y-30474000D01*
X77094685Y-30406961D01*
X77147489Y-30361206D01*
X77199000Y-30350000D01*
X78062499Y-30350000D01*
X78062499Y-30313360D01*
X78062498Y-30313345D01*
X78052180Y-30212347D01*
X77997953Y-30048699D01*
X77997948Y-30048688D01*
X77907447Y-29901965D01*
X77907444Y-29901961D01*
X77811015Y-29805532D01*
X77777530Y-29744209D01*
X77782514Y-29674517D01*
X77824386Y-29618584D01*
X77829806Y-29614749D01*
X77928656Y-29548699D01*
X77963349Y-29525518D01*
X78075518Y-29413349D01*
X78163648Y-29281453D01*
X78224353Y-29134897D01*
X78224368Y-29134826D01*
X78255299Y-28979319D01*
X78255300Y-28979316D01*
X78255300Y-28820684D01*
X78255299Y-28820680D01*
X78224355Y-28665110D01*
X78224352Y-28665101D01*
X78163651Y-28518553D01*
X78163644Y-28518540D01*
X78075518Y-28386651D01*
X78075515Y-28386647D01*
X77987022Y-28298154D01*
X77953537Y-28236831D01*
X77958521Y-28167139D01*
X77996037Y-28114620D01*
X78029250Y-28087362D01*
X78029250Y-27284488D01*
X78039190Y-27301705D01*
X78095045Y-27357560D01*
X78163454Y-27397056D01*
X78239754Y-27417500D01*
X78318746Y-27417500D01*
X78395046Y-27397056D01*
X78463455Y-27357560D01*
X78519310Y-27301705D01*
X78529250Y-27284488D01*
X78529250Y-28087362D01*
X78570940Y-28079069D01*
X78570942Y-28079069D01*
X78752921Y-28003692D01*
X78752934Y-28003685D01*
X78916712Y-27894251D01*
X78916716Y-27894248D01*
X79055998Y-27754966D01*
X79056001Y-27754962D01*
X79165435Y-27591184D01*
X79165442Y-27591171D01*
X79240819Y-27409193D01*
X79240822Y-27409181D01*
X79279249Y-27215995D01*
X79279250Y-27215992D01*
X79279250Y-26817500D01*
X78579250Y-26817500D01*
X78579250Y-26317500D01*
X79279250Y-26317500D01*
X79279250Y-25919008D01*
X79279249Y-25919004D01*
X79240822Y-25725818D01*
X79240819Y-25725806D01*
X79165442Y-25543828D01*
X79165435Y-25543815D01*
X79056001Y-25380037D01*
X79055998Y-25380033D01*
X78916716Y-25240751D01*
X78916712Y-25240748D01*
X78752934Y-25131314D01*
X78752921Y-25131307D01*
X78570941Y-25055929D01*
X78570933Y-25055927D01*
X78529250Y-25047635D01*
X78529250Y-25850511D01*
X78519310Y-25833295D01*
X78463455Y-25777440D01*
X78395046Y-25737944D01*
X78318746Y-25717500D01*
X78239754Y-25717500D01*
X78163454Y-25737944D01*
X78095045Y-25777440D01*
X78039190Y-25833295D01*
X78029250Y-25850511D01*
X78029250Y-25047636D01*
X78029249Y-25047635D01*
X77987566Y-25055927D01*
X77987558Y-25055929D01*
X77805578Y-25131307D01*
X77805565Y-25131314D01*
X77641787Y-25240748D01*
X77641783Y-25240751D01*
X77502501Y-25380033D01*
X77502498Y-25380037D01*
X77393064Y-25543815D01*
X77393059Y-25543824D01*
X77389116Y-25553345D01*
X77345273Y-25607747D01*
X77278978Y-25629810D01*
X77211280Y-25612529D01*
X77205847Y-25608851D01*
X77071386Y-25531219D01*
X76998200Y-25511609D01*
X76925016Y-25492000D01*
X76773484Y-25492000D01*
X76627113Y-25531219D01*
X76495885Y-25606985D01*
X76495882Y-25606987D01*
X76388737Y-25714132D01*
X76388735Y-25714135D01*
X76312969Y-25845363D01*
X76273750Y-25991734D01*
X76273750Y-26143265D01*
X76312969Y-26289636D01*
X76329057Y-26317500D01*
X76388735Y-26420865D01*
X76495885Y-26528015D01*
X76627115Y-26603781D01*
X76773484Y-26643000D01*
X76773486Y-26643000D01*
X76925014Y-26643000D01*
X76925016Y-26643000D01*
X77071385Y-26603781D01*
X77202615Y-26528015D01*
X77309765Y-26420865D01*
X77333647Y-26379499D01*
X77384214Y-26331284D01*
X77441034Y-26317500D01*
X77979250Y-26317500D01*
X77979250Y-26817500D01*
X77279250Y-26817500D01*
X77279250Y-27215995D01*
X77317677Y-27409181D01*
X77317680Y-27409193D01*
X77348714Y-27484116D01*
X77356183Y-27553585D01*
X77324907Y-27616064D01*
X77264818Y-27651716D01*
X77194993Y-27649222D01*
X77146472Y-27619249D01*
X76990492Y-27463269D01*
X76990485Y-27463263D01*
X76877312Y-27387644D01*
X76877309Y-27387642D01*
X76751561Y-27335556D01*
X76751549Y-27335553D01*
X76666053Y-27318547D01*
X76666052Y-27318546D01*
X76642055Y-27313773D01*
X76618059Y-27309000D01*
X76618058Y-27309000D01*
X71281942Y-27309000D01*
X71281941Y-27309000D01*
X71257944Y-27313773D01*
X71233947Y-27318547D01*
X71233946Y-27318547D01*
X71148450Y-27335553D01*
X71148438Y-27335556D01*
X71022695Y-27387640D01*
X71022682Y-27387647D01*
X70909514Y-27463264D01*
X70785108Y-27587670D01*
X70723785Y-27621154D01*
X70654093Y-27616170D01*
X70598160Y-27574298D01*
X70573743Y-27508834D01*
X70582866Y-27452535D01*
X70600820Y-27409189D01*
X70600822Y-27409181D01*
X70639249Y-27215995D01*
X70639250Y-27215992D01*
X70639250Y-26817500D01*
X69939250Y-26817500D01*
X69939250Y-26317500D01*
X70477466Y-26317500D01*
X70544505Y-26337185D01*
X70584852Y-26379499D01*
X70608735Y-26420865D01*
X70715885Y-26528015D01*
X70847115Y-26603781D01*
X70993484Y-26643000D01*
X70993486Y-26643000D01*
X71145014Y-26643000D01*
X71145016Y-26643000D01*
X71291385Y-26603781D01*
X71422615Y-26528015D01*
X71529765Y-26420865D01*
X71605531Y-26289635D01*
X71644750Y-26143266D01*
X71644750Y-25991734D01*
X71605531Y-25845365D01*
X71529765Y-25714135D01*
X71422615Y-25606985D01*
X71352656Y-25566594D01*
X71291386Y-25531219D01*
X71218200Y-25511609D01*
X71145016Y-25492000D01*
X70993484Y-25492000D01*
X70847113Y-25531219D01*
X70755678Y-25584010D01*
X70715885Y-25606985D01*
X70715883Y-25606986D01*
X70708847Y-25611049D01*
X70707577Y-25608849D01*
X70654245Y-25629460D01*
X70585802Y-25615414D01*
X70535818Y-25566594D01*
X70529381Y-25553338D01*
X70525442Y-25543828D01*
X70525435Y-25543815D01*
X70416001Y-25380037D01*
X70415998Y-25380033D01*
X70276716Y-25240751D01*
X70276712Y-25240748D01*
X70112934Y-25131314D01*
X70112921Y-25131307D01*
X69930941Y-25055929D01*
X69930933Y-25055927D01*
X69889250Y-25047635D01*
X69889250Y-25850511D01*
X69879310Y-25833295D01*
X69823455Y-25777440D01*
X69755046Y-25737944D01*
X69678746Y-25717500D01*
X69599754Y-25717500D01*
X69523454Y-25737944D01*
X69455045Y-25777440D01*
X69399190Y-25833295D01*
X69389250Y-25850511D01*
X69389250Y-25047636D01*
X69389249Y-25047635D01*
X69347566Y-25055927D01*
X69347558Y-25055929D01*
X69165578Y-25131307D01*
X69165565Y-25131314D01*
X69001787Y-25240748D01*
X69001783Y-25240751D01*
X68862501Y-25380033D01*
X68862498Y-25380037D01*
X68753064Y-25543815D01*
X68753057Y-25543828D01*
X68677680Y-25725806D01*
X68677677Y-25725818D01*
X68639250Y-25919004D01*
X68639250Y-26317500D01*
X69339250Y-26317500D01*
X69339250Y-26817500D01*
X68639250Y-26817500D01*
X68639250Y-27215995D01*
X68677677Y-27409181D01*
X68677680Y-27409193D01*
X68753057Y-27591171D01*
X68753064Y-27591184D01*
X68862498Y-27754962D01*
X68862501Y-27754966D01*
X69001783Y-27894248D01*
X69001787Y-27894251D01*
X69165565Y-28003685D01*
X69165578Y-28003692D01*
X69347558Y-28079069D01*
X69389250Y-28087362D01*
X69389250Y-27284488D01*
X69399190Y-27301705D01*
X69455045Y-27357560D01*
X69523454Y-27397056D01*
X69599754Y-27417500D01*
X69678746Y-27417500D01*
X69755046Y-27397056D01*
X69823455Y-27357560D01*
X69879310Y-27301705D01*
X69889250Y-27284488D01*
X69889250Y-28087362D01*
X69930938Y-28079070D01*
X69933675Y-28078240D01*
X69935181Y-28078226D01*
X69936913Y-28077882D01*
X69936978Y-28078210D01*
X70003542Y-28077610D01*
X70062659Y-28114852D01*
X70092256Y-28178144D01*
X70084244Y-28244347D01*
X70075647Y-28265101D01*
X70075644Y-28265110D01*
X70044700Y-28420680D01*
X70044700Y-28579319D01*
X70075644Y-28734889D01*
X70075647Y-28734898D01*
X70136348Y-28881446D01*
X70136355Y-28881458D01*
X70169865Y-28931609D01*
X70190743Y-28998286D01*
X70172259Y-29065666D01*
X70120280Y-29112357D01*
X70066764Y-29124500D01*
X69963331Y-29124500D01*
X69963312Y-29124501D01*
X69862247Y-29134825D01*
X69698484Y-29189092D01*
X69698481Y-29189093D01*
X69551651Y-29279659D01*
X69437327Y-29393983D01*
X69376004Y-29427467D01*
X69306312Y-29422483D01*
X69261965Y-29393982D01*
X69148038Y-29280055D01*
X69148034Y-29280052D01*
X69001311Y-29189551D01*
X69001300Y-29189546D01*
X68837652Y-29135319D01*
X68736654Y-29125000D01*
X68687500Y-29125000D01*
X68687500Y-29976000D01*
X68667815Y-30043039D01*
X68615011Y-30088794D01*
X68563500Y-30100000D01*
X68437500Y-30100000D01*
X68437500Y-30226000D01*
X68417815Y-30293039D01*
X68365011Y-30338794D01*
X68313500Y-30350000D01*
X67450001Y-30350000D01*
X67450001Y-30386654D01*
X67460319Y-30487652D01*
X67514546Y-30651300D01*
X67514551Y-30651311D01*
X67599387Y-30788850D01*
X67617828Y-30856242D01*
X67596906Y-30922906D01*
X67562741Y-30957048D01*
X67536653Y-30974479D01*
X67536647Y-30974484D01*
X67424484Y-31086647D01*
X67424481Y-31086651D01*
X67336355Y-31218540D01*
X67336348Y-31218553D01*
X67275647Y-31365101D01*
X67275644Y-31365110D01*
X67244700Y-31520680D01*
X67244700Y-31679319D01*
X67275644Y-31834889D01*
X67275647Y-31834898D01*
X67336348Y-31981446D01*
X67336355Y-31981459D01*
X67427866Y-32118414D01*
X67425721Y-32119847D01*
X67448660Y-32173791D01*
X67449500Y-32188201D01*
X67449500Y-46199903D01*
X67429815Y-46266942D01*
X67413181Y-46287584D01*
X61937584Y-51763181D01*
X61876261Y-51796666D01*
X61849903Y-51799500D01*
X52538202Y-51799500D01*
X52471163Y-51779815D01*
X52468437Y-51777831D01*
X52468414Y-51777866D01*
X52331459Y-51686355D01*
X52331446Y-51686348D01*
X52184898Y-51625647D01*
X52184889Y-51625644D01*
X52029319Y-51594700D01*
X52029315Y-51594700D01*
X51870685Y-51594700D01*
X51870680Y-51594700D01*
X51715110Y-51625644D01*
X51715101Y-51625647D01*
X51568553Y-51686348D01*
X51568540Y-51686355D01*
X51436651Y-51774481D01*
X51436647Y-51774484D01*
X51324484Y-51886647D01*
X51324481Y-51886651D01*
X51236355Y-52018540D01*
X51236348Y-52018553D01*
X51175647Y-52165101D01*
X51175644Y-52165110D01*
X51144700Y-52320680D01*
X51144700Y-52479318D01*
X51159020Y-52551309D01*
X51152793Y-52620900D01*
X51109930Y-52676078D01*
X51044040Y-52699322D01*
X51037403Y-52699500D01*
X48238202Y-52699500D01*
X48171163Y-52679815D01*
X48168437Y-52677831D01*
X48168414Y-52677866D01*
X48031459Y-52586355D01*
X48031446Y-52586348D01*
X47884898Y-52525647D01*
X47884889Y-52525644D01*
X47729319Y-52494700D01*
X47729315Y-52494700D01*
X47570685Y-52494700D01*
X47570680Y-52494700D01*
X47415110Y-52525644D01*
X47415101Y-52525647D01*
X47268553Y-52586348D01*
X47268540Y-52586355D01*
X47136651Y-52674481D01*
X47136647Y-52674484D01*
X47024484Y-52786647D01*
X47024481Y-52786651D01*
X46936355Y-52918540D01*
X46936348Y-52918553D01*
X46875647Y-53065101D01*
X46875644Y-53065110D01*
X46844700Y-53220680D01*
X40932805Y-53220680D01*
X40932746Y-53219039D01*
X40627704Y-44715996D01*
X40207398Y-32999992D01*
X40224666Y-32932291D01*
X40275796Y-32884673D01*
X40344553Y-32872256D01*
X40409109Y-32898984D01*
X40418999Y-32907867D01*
X40436647Y-32925515D01*
X40436651Y-32925518D01*
X40568540Y-33013644D01*
X40568553Y-33013651D01*
X40656480Y-33050071D01*
X40715103Y-33074353D01*
X40830294Y-33097265D01*
X40892201Y-33129648D01*
X40893781Y-33131200D01*
X48186181Y-40423600D01*
X48219666Y-40484923D01*
X48222500Y-40511281D01*
X48222500Y-48361803D01*
X48222500Y-48361805D01*
X48222499Y-48361805D01*
X48246613Y-48483029D01*
X48246616Y-48483039D01*
X48293913Y-48597226D01*
X48293920Y-48597239D01*
X48362588Y-48700007D01*
X48362591Y-48700011D01*
X48449988Y-48787408D01*
X48449996Y-48787414D01*
X48552756Y-48856076D01*
X48552759Y-48856077D01*
X48552767Y-48856083D01*
X48552773Y-48856085D01*
X48552774Y-48856086D01*
X48642471Y-48893239D01*
X48682700Y-48920119D01*
X49469987Y-49707407D01*
X49469991Y-49707410D01*
X49572760Y-49776079D01*
X49572773Y-49776086D01*
X49686960Y-49823383D01*
X49686965Y-49823385D01*
X49686969Y-49823385D01*
X49686970Y-49823386D01*
X49808193Y-49847500D01*
X49808196Y-49847500D01*
X49808197Y-49847500D01*
X55809689Y-49847500D01*
X55876728Y-49867185D01*
X55920174Y-49915205D01*
X55966657Y-50006433D01*
X56105483Y-50197510D01*
X56272490Y-50364517D01*
X56463567Y-50503343D01*
X56562991Y-50554002D01*
X56674003Y-50610566D01*
X56674005Y-50610566D01*
X56674008Y-50610568D01*
X56794412Y-50649689D01*
X56898631Y-50683553D01*
X57131903Y-50720500D01*
X57131908Y-50720500D01*
X57368097Y-50720500D01*
X57601368Y-50683553D01*
X57825992Y-50610568D01*
X58036433Y-50503343D01*
X58227510Y-50364517D01*
X58394517Y-50197510D01*
X58533343Y-50006433D01*
X58640568Y-49795992D01*
X58713553Y-49571368D01*
X58750500Y-49338097D01*
X58750500Y-49101902D01*
X58713553Y-48868631D01*
X58679689Y-48764412D01*
X58640568Y-48644008D01*
X58640566Y-48644005D01*
X58640566Y-48644003D01*
X58533342Y-48433566D01*
X58394517Y-48242490D01*
X58227510Y-48075483D01*
X58192872Y-48050317D01*
X58150207Y-47994989D01*
X58144228Y-47925375D01*
X58176833Y-47863580D01*
X58192873Y-47849682D01*
X58227510Y-47824517D01*
X58394517Y-47657510D01*
X58533343Y-47466433D01*
X58640568Y-47255992D01*
X58713553Y-47031368D01*
X58724049Y-46965101D01*
X58750500Y-46798097D01*
X58750500Y-46561902D01*
X58713553Y-46328631D01*
X58640566Y-46104003D01*
X58533342Y-45893566D01*
X58394517Y-45702490D01*
X58227510Y-45535483D01*
X58192872Y-45510317D01*
X58150207Y-45454989D01*
X58144228Y-45385375D01*
X58176833Y-45323580D01*
X58192873Y-45309682D01*
X58227510Y-45284517D01*
X58394517Y-45117510D01*
X58533343Y-44926433D01*
X58640568Y-44715992D01*
X58713553Y-44491368D01*
X58750500Y-44258097D01*
X58750500Y-44021902D01*
X58713553Y-43788631D01*
X58640566Y-43564003D01*
X58533342Y-43353566D01*
X58394517Y-43162490D01*
X58227510Y-42995483D01*
X58192872Y-42970317D01*
X58150207Y-42914989D01*
X58144228Y-42845375D01*
X58176833Y-42783580D01*
X58192873Y-42769682D01*
X58227510Y-42744517D01*
X58394517Y-42577510D01*
X58533343Y-42386433D01*
X58640568Y-42175992D01*
X58713553Y-41951368D01*
X58750500Y-41718097D01*
X58750500Y-41481902D01*
X58713553Y-41248631D01*
X58663027Y-41093130D01*
X58640568Y-41024008D01*
X58640566Y-41024005D01*
X58640566Y-41024003D01*
X58533342Y-40813566D01*
X58394517Y-40622490D01*
X58227510Y-40455483D01*
X58192872Y-40430317D01*
X58150207Y-40374989D01*
X58144228Y-40305375D01*
X58176833Y-40243580D01*
X58192873Y-40229682D01*
X58227510Y-40204517D01*
X58394517Y-40037510D01*
X58533343Y-39846433D01*
X58640568Y-39635992D01*
X58713553Y-39411368D01*
X58750500Y-39178097D01*
X58750500Y-38941902D01*
X58713553Y-38708631D01*
X58640566Y-38484003D01*
X58533342Y-38273566D01*
X58394517Y-38082490D01*
X58227510Y-37915483D01*
X58192872Y-37890317D01*
X58150207Y-37834989D01*
X58144228Y-37765375D01*
X58176833Y-37703580D01*
X58192873Y-37689682D01*
X58227510Y-37664517D01*
X58394517Y-37497510D01*
X58533343Y-37306433D01*
X58640568Y-37095992D01*
X58713553Y-36871368D01*
X58735169Y-36734889D01*
X58750500Y-36638097D01*
X58750500Y-36401902D01*
X58713553Y-36168631D01*
X58640566Y-35944003D01*
X58533342Y-35733566D01*
X58394517Y-35542490D01*
X58227510Y-35375483D01*
X58192872Y-35350317D01*
X58150207Y-35294989D01*
X58144228Y-35225375D01*
X58176833Y-35163580D01*
X58192873Y-35149682D01*
X58227510Y-35124517D01*
X58394517Y-34957510D01*
X58533343Y-34766433D01*
X58640568Y-34555992D01*
X58713553Y-34331368D01*
X58750500Y-34098097D01*
X58750500Y-33861902D01*
X58713553Y-33628631D01*
X58640566Y-33404003D01*
X58533342Y-33193566D01*
X58394517Y-33002490D01*
X58227510Y-32835483D01*
X58168282Y-32792451D01*
X58125617Y-32737122D01*
X58117550Y-32682404D01*
X58119104Y-32662657D01*
X57379408Y-31922962D01*
X57442993Y-31905925D01*
X57557007Y-31840099D01*
X57650099Y-31747007D01*
X57715925Y-31632993D01*
X57732962Y-31569409D01*
X58472658Y-32309105D01*
X58472658Y-32309104D01*
X58532914Y-32226169D01*
X58532918Y-32226163D01*
X58640102Y-32015802D01*
X58713065Y-31791247D01*
X58750000Y-31558052D01*
X58750000Y-31321947D01*
X58736069Y-31233991D01*
X58733961Y-31220680D01*
X60744700Y-31220680D01*
X60744700Y-31379319D01*
X60775644Y-31534889D01*
X60775647Y-31534898D01*
X60836348Y-31681446D01*
X60836355Y-31681458D01*
X60901602Y-31779106D01*
X60922480Y-31845783D01*
X60922500Y-31847997D01*
X60922500Y-35952002D01*
X60902815Y-36019041D01*
X60901602Y-36020892D01*
X60836358Y-36118536D01*
X60836348Y-36118554D01*
X60775647Y-36265101D01*
X60775644Y-36265110D01*
X60744700Y-36420680D01*
X60744700Y-36579319D01*
X60775644Y-36734889D01*
X60775647Y-36734898D01*
X60836348Y-36881446D01*
X60836355Y-36881459D01*
X60924481Y-37013348D01*
X60924484Y-37013352D01*
X61036647Y-37125515D01*
X61036651Y-37125518D01*
X61168540Y-37213644D01*
X61168553Y-37213651D01*
X61278464Y-37259176D01*
X61315103Y-37274353D01*
X61315105Y-37274353D01*
X61315110Y-37274355D01*
X61470680Y-37305299D01*
X61470684Y-37305300D01*
X61470685Y-37305300D01*
X61629316Y-37305300D01*
X61629317Y-37305299D01*
X61681175Y-37294984D01*
X61784889Y-37274355D01*
X61784892Y-37274353D01*
X61784897Y-37274353D01*
X61931453Y-37213648D01*
X62063349Y-37125518D01*
X62175518Y-37013349D01*
X62263648Y-36881453D01*
X62324353Y-36734897D01*
X62355300Y-36579315D01*
X62355300Y-36420685D01*
X62351564Y-36401902D01*
X62324355Y-36265110D01*
X62324352Y-36265101D01*
X62263651Y-36118554D01*
X62263650Y-36118553D01*
X62263648Y-36118547D01*
X62263641Y-36118536D01*
X62198398Y-36020892D01*
X62177520Y-35954215D01*
X62177500Y-35952002D01*
X62177500Y-31847997D01*
X62197185Y-31780958D01*
X62198398Y-31779106D01*
X62233256Y-31726937D01*
X62263648Y-31681453D01*
X62266536Y-31674482D01*
X62283721Y-31632993D01*
X62324353Y-31534897D01*
X62355300Y-31379315D01*
X62355300Y-31220685D01*
X62341542Y-31151516D01*
X62324355Y-31065110D01*
X62324352Y-31065101D01*
X62263651Y-30918553D01*
X62263644Y-30918540D01*
X62175518Y-30786651D01*
X62175515Y-30786647D01*
X62063352Y-30674484D01*
X62063348Y-30674481D01*
X61931459Y-30586355D01*
X61931446Y-30586348D01*
X61784898Y-30525647D01*
X61784889Y-30525644D01*
X61629319Y-30494700D01*
X61629315Y-30494700D01*
X61470685Y-30494700D01*
X61470680Y-30494700D01*
X61315110Y-30525644D01*
X61315101Y-30525647D01*
X61168553Y-30586348D01*
X61168540Y-30586355D01*
X61036651Y-30674481D01*
X61036647Y-30674484D01*
X60924484Y-30786647D01*
X60924481Y-30786651D01*
X60836355Y-30918540D01*
X60836348Y-30918553D01*
X60775647Y-31065101D01*
X60775644Y-31065110D01*
X60744700Y-31220680D01*
X58733961Y-31220680D01*
X58713065Y-31088752D01*
X58640102Y-30864197D01*
X58532914Y-30653828D01*
X58472658Y-30570894D01*
X58472658Y-30570893D01*
X57732962Y-31310590D01*
X57715925Y-31247007D01*
X57650099Y-31132993D01*
X57557007Y-31039901D01*
X57442993Y-30974075D01*
X57379409Y-30957037D01*
X58119105Y-30217340D01*
X58119104Y-30217338D01*
X58036174Y-30157087D01*
X57825802Y-30049897D01*
X57601247Y-29976934D01*
X57601248Y-29976934D01*
X57368052Y-29940000D01*
X57131948Y-29940000D01*
X56898752Y-29976934D01*
X56674197Y-30049897D01*
X56463830Y-30157084D01*
X56380894Y-30217340D01*
X57120591Y-30957037D01*
X57057007Y-30974075D01*
X56942993Y-31039901D01*
X56849901Y-31132993D01*
X56784075Y-31247007D01*
X56767037Y-31310591D01*
X56027340Y-30570894D01*
X55967084Y-30653830D01*
X55859897Y-30864197D01*
X55786934Y-31088752D01*
X55750000Y-31321947D01*
X55750000Y-31558052D01*
X55786934Y-31791247D01*
X55859897Y-32015802D01*
X55967087Y-32226174D01*
X56027338Y-32309104D01*
X56027340Y-32309105D01*
X56767037Y-31569408D01*
X56784075Y-31632993D01*
X56849901Y-31747007D01*
X56942993Y-31840099D01*
X57057007Y-31905925D01*
X57120590Y-31922962D01*
X56380893Y-32662658D01*
X56382448Y-32682405D01*
X56368084Y-32750783D01*
X56331717Y-32792451D01*
X56272490Y-32835482D01*
X56105485Y-33002487D01*
X56105485Y-33002488D01*
X56105483Y-33002490D01*
X56053273Y-33074351D01*
X55966657Y-33193566D01*
X55859433Y-33404003D01*
X55786446Y-33628631D01*
X55749500Y-33861902D01*
X55749500Y-34098097D01*
X55786446Y-34331368D01*
X55859433Y-34555996D01*
X55966657Y-34766433D01*
X56105483Y-34957510D01*
X56272490Y-35124517D01*
X56307127Y-35149683D01*
X56349792Y-35205013D01*
X56355771Y-35274626D01*
X56323165Y-35336421D01*
X56307130Y-35350315D01*
X56289365Y-35363222D01*
X56272488Y-35375484D01*
X56105485Y-35542487D01*
X56105485Y-35542488D01*
X56105483Y-35542490D01*
X56045862Y-35624550D01*
X55966657Y-35733566D01*
X55859433Y-35944003D01*
X55786446Y-36168631D01*
X55749500Y-36401902D01*
X55749500Y-36638097D01*
X55786446Y-36871368D01*
X55859433Y-37095996D01*
X55919382Y-37213651D01*
X55966657Y-37306433D01*
X56105483Y-37497510D01*
X56272490Y-37664517D01*
X56307127Y-37689683D01*
X56349792Y-37745013D01*
X56355771Y-37814626D01*
X56323165Y-37876421D01*
X56307130Y-37890315D01*
X56289365Y-37903222D01*
X56272488Y-37915484D01*
X56105485Y-38082487D01*
X56105485Y-38082488D01*
X56105483Y-38082490D01*
X56045862Y-38164550D01*
X55966657Y-38273566D01*
X55859433Y-38484003D01*
X55786446Y-38708631D01*
X55749500Y-38941902D01*
X55749500Y-39178097D01*
X55786446Y-39411368D01*
X55859433Y-39635996D01*
X55966657Y-39846433D01*
X56105483Y-40037510D01*
X56272490Y-40204517D01*
X56307127Y-40229683D01*
X56349792Y-40285013D01*
X56355771Y-40354626D01*
X56323165Y-40416421D01*
X56307130Y-40430315D01*
X56289365Y-40443222D01*
X56272488Y-40455484D01*
X56105485Y-40622487D01*
X56105485Y-40622488D01*
X56105483Y-40622490D01*
X56045862Y-40704550D01*
X55966657Y-40813566D01*
X55859433Y-41024005D01*
X55836973Y-41093130D01*
X55797535Y-41150806D01*
X55733177Y-41178004D01*
X55664330Y-41166089D01*
X55631361Y-41142493D01*
X55563352Y-41074484D01*
X55563348Y-41074481D01*
X55431459Y-40986355D01*
X55431446Y-40986348D01*
X55284898Y-40925647D01*
X55284889Y-40925644D01*
X55129319Y-40894700D01*
X55129315Y-40894700D01*
X54970685Y-40894700D01*
X54970680Y-40894700D01*
X54815110Y-40925644D01*
X54815101Y-40925647D01*
X54668553Y-40986348D01*
X54668540Y-40986355D01*
X54536651Y-41074481D01*
X54536647Y-41074484D01*
X54424484Y-41186647D01*
X54424481Y-41186651D01*
X54336355Y-41318540D01*
X54336348Y-41318553D01*
X54318787Y-41360952D01*
X54274947Y-41415356D01*
X54208653Y-41437421D01*
X54204226Y-41437500D01*
X52624551Y-41437500D01*
X52557512Y-41417815D01*
X52511757Y-41365011D01*
X52501813Y-41295853D01*
X52521449Y-41244609D01*
X52563644Y-41181459D01*
X52563645Y-41181457D01*
X52563648Y-41181453D01*
X52624353Y-41034897D01*
X52655300Y-40879315D01*
X52655300Y-40720685D01*
X52635768Y-40622488D01*
X52624355Y-40565110D01*
X52624352Y-40565101D01*
X52563651Y-40418554D01*
X52563650Y-40418553D01*
X52563648Y-40418547D01*
X52563641Y-40418536D01*
X52498398Y-40320892D01*
X52477520Y-40254215D01*
X52477500Y-40252002D01*
X52477500Y-31211280D01*
X52497185Y-31144241D01*
X52513815Y-31123603D01*
X52706218Y-30931199D01*
X52767539Y-30897716D01*
X52769606Y-30897285D01*
X52884897Y-30874353D01*
X53031453Y-30813648D01*
X53163349Y-30725518D01*
X53275518Y-30613349D01*
X53363648Y-30481453D01*
X53424353Y-30334897D01*
X53455300Y-30179315D01*
X53455300Y-30020685D01*
X53424353Y-29865103D01*
X53402914Y-29813345D01*
X67450000Y-29813345D01*
X67450000Y-29850000D01*
X68187500Y-29850000D01*
X68187500Y-29125000D01*
X68187499Y-29124999D01*
X68138361Y-29125000D01*
X68138343Y-29125001D01*
X68037347Y-29135319D01*
X67873699Y-29189546D01*
X67873688Y-29189551D01*
X67726965Y-29280052D01*
X67726961Y-29280055D01*
X67605055Y-29401961D01*
X67605052Y-29401965D01*
X67514551Y-29548688D01*
X67514546Y-29548699D01*
X67460319Y-29712347D01*
X67450000Y-29813345D01*
X53402914Y-29813345D01*
X53376044Y-29748474D01*
X53363651Y-29718553D01*
X53363644Y-29718540D01*
X53275518Y-29586651D01*
X53275515Y-29586647D01*
X53163352Y-29474484D01*
X53163348Y-29474481D01*
X53031459Y-29386355D01*
X53031446Y-29386348D01*
X52884898Y-29325647D01*
X52884889Y-29325644D01*
X52729319Y-29294700D01*
X52729315Y-29294700D01*
X52570685Y-29294700D01*
X52570680Y-29294700D01*
X52415110Y-29325644D01*
X52415101Y-29325647D01*
X52268553Y-29386348D01*
X52268540Y-29386355D01*
X52136651Y-29474481D01*
X52136647Y-29474484D01*
X52024484Y-29586647D01*
X52024481Y-29586651D01*
X51936355Y-29718540D01*
X51936348Y-29718553D01*
X51875648Y-29865098D01*
X51875645Y-29865110D01*
X51852734Y-29980291D01*
X51820349Y-30042202D01*
X51818798Y-30043781D01*
X51527692Y-30334889D01*
X51449992Y-30412589D01*
X51406289Y-30456292D01*
X51362586Y-30499994D01*
X51362585Y-30499996D01*
X51293825Y-30602902D01*
X51293713Y-30603260D01*
X51246614Y-30716965D01*
X51227594Y-30812589D01*
X51226308Y-30819052D01*
X51226304Y-30819066D01*
X51222500Y-30838194D01*
X51222500Y-40252002D01*
X51202815Y-40319041D01*
X51201602Y-40320892D01*
X51136358Y-40418536D01*
X51136348Y-40418554D01*
X51075647Y-40565101D01*
X51075644Y-40565110D01*
X51044700Y-40720680D01*
X51044700Y-40879319D01*
X51075644Y-41034889D01*
X51075647Y-41034898D01*
X51136348Y-41181446D01*
X51136354Y-41181457D01*
X51175944Y-41240708D01*
X51196821Y-41307385D01*
X51178336Y-41374766D01*
X51141732Y-41412700D01*
X51101651Y-41439481D01*
X51101647Y-41439484D01*
X50989484Y-41551647D01*
X50989481Y-41551651D01*
X50901355Y-41683540D01*
X50901348Y-41683553D01*
X50840647Y-41830101D01*
X50840644Y-41830110D01*
X50809700Y-41985680D01*
X50809700Y-42144319D01*
X50840644Y-42299889D01*
X50840647Y-42299898D01*
X50901348Y-42446446D01*
X50901355Y-42446459D01*
X50989481Y-42578348D01*
X50989484Y-42578352D01*
X51101647Y-42690515D01*
X51101651Y-42690518D01*
X51233540Y-42778644D01*
X51233553Y-42778651D01*
X51343464Y-42824176D01*
X51380103Y-42839353D01*
X51380105Y-42839353D01*
X51380110Y-42839355D01*
X51535680Y-42870299D01*
X51535684Y-42870300D01*
X51535685Y-42870300D01*
X51694316Y-42870300D01*
X51694317Y-42870299D01*
X51746175Y-42859984D01*
X51849889Y-42839355D01*
X51849892Y-42839353D01*
X51849897Y-42839353D01*
X51996453Y-42778648D01*
X52047537Y-42744515D01*
X52094108Y-42713398D01*
X52160785Y-42692520D01*
X52162998Y-42692500D01*
X54746804Y-42692500D01*
X54746805Y-42692499D01*
X54868035Y-42668386D01*
X54948784Y-42634937D01*
X54982233Y-42621083D01*
X55085008Y-42552411D01*
X55115082Y-42522336D01*
X55125535Y-42515429D01*
X55147428Y-42508696D01*
X55167534Y-42497717D01*
X55169606Y-42497285D01*
X55284897Y-42474353D01*
X55431453Y-42413648D01*
X55563349Y-42325518D01*
X55675518Y-42213349D01*
X55675520Y-42213345D01*
X55679382Y-42208641D01*
X55681235Y-42210161D01*
X55726705Y-42172141D01*
X55796027Y-42163415D01*
X55859063Y-42193553D01*
X55886710Y-42229529D01*
X55922565Y-42299898D01*
X55966657Y-42386433D01*
X56105483Y-42577510D01*
X56272490Y-42744517D01*
X56307127Y-42769683D01*
X56349792Y-42825013D01*
X56355771Y-42894626D01*
X56323165Y-42956421D01*
X56307130Y-42970315D01*
X56289365Y-42983222D01*
X56272488Y-42995484D01*
X56105485Y-43162487D01*
X56105485Y-43162488D01*
X56105483Y-43162490D01*
X56045862Y-43244550D01*
X55966657Y-43353566D01*
X55859433Y-43564003D01*
X55786446Y-43788631D01*
X55749500Y-44021902D01*
X55749500Y-44258097D01*
X55786447Y-44491369D01*
X55786447Y-44491372D01*
X55818086Y-44588744D01*
X55820081Y-44658585D01*
X55787836Y-44714743D01*
X53966400Y-46536181D01*
X53905077Y-46569666D01*
X53878719Y-46572500D01*
X52497998Y-46572500D01*
X52430959Y-46552815D01*
X52429108Y-46551602D01*
X52331463Y-46486358D01*
X52331456Y-46486354D01*
X52331453Y-46486352D01*
X52331449Y-46486350D01*
X52331445Y-46486348D01*
X52184898Y-46425647D01*
X52184889Y-46425644D01*
X52029319Y-46394700D01*
X52029315Y-46394700D01*
X51870685Y-46394700D01*
X51870680Y-46394700D01*
X51715110Y-46425644D01*
X51715101Y-46425647D01*
X51568553Y-46486348D01*
X51568540Y-46486355D01*
X51436651Y-46574481D01*
X51436647Y-46574484D01*
X51324484Y-46686647D01*
X51324481Y-46686651D01*
X51236355Y-46818540D01*
X51236348Y-46818553D01*
X51175647Y-46965101D01*
X51175644Y-46965110D01*
X51144700Y-47120680D01*
X51144700Y-47279319D01*
X51175644Y-47434889D01*
X51175647Y-47434898D01*
X51236348Y-47581446D01*
X51236355Y-47581459D01*
X51324481Y-47713348D01*
X51324484Y-47713352D01*
X51436647Y-47825515D01*
X51436651Y-47825518D01*
X51568540Y-47913644D01*
X51568553Y-47913651D01*
X51632362Y-47940081D01*
X51715103Y-47974353D01*
X51715105Y-47974353D01*
X51715110Y-47974355D01*
X51870680Y-48005299D01*
X51870684Y-48005300D01*
X51870685Y-48005300D01*
X52029316Y-48005300D01*
X52029317Y-48005299D01*
X52081175Y-47994984D01*
X52184889Y-47974355D01*
X52184892Y-47974353D01*
X52184897Y-47974353D01*
X52331453Y-47913648D01*
X52368762Y-47888719D01*
X52429108Y-47848398D01*
X52495785Y-47827520D01*
X52497998Y-47827500D01*
X54251804Y-47827500D01*
X54251805Y-47827499D01*
X54373035Y-47803386D01*
X54453784Y-47769937D01*
X54487233Y-47756083D01*
X54590008Y-47687411D01*
X54677411Y-47600008D01*
X55540475Y-46736942D01*
X55601798Y-46703458D01*
X55671489Y-46708442D01*
X55727423Y-46750314D01*
X55750629Y-46805226D01*
X55786446Y-47031368D01*
X55859433Y-47255996D01*
X55950589Y-47434898D01*
X55966657Y-47466433D01*
X56105483Y-47657510D01*
X56272490Y-47824517D01*
X56307127Y-47849683D01*
X56349792Y-47905013D01*
X56355771Y-47974626D01*
X56323165Y-48036421D01*
X56307130Y-48050315D01*
X56289365Y-48063222D01*
X56272488Y-48075484D01*
X56105485Y-48242487D01*
X56105485Y-48242488D01*
X56105483Y-48242490D01*
X56045862Y-48324550D01*
X55966657Y-48433566D01*
X55920174Y-48524795D01*
X55872199Y-48575591D01*
X55809689Y-48592500D01*
X50181281Y-48592500D01*
X50114242Y-48572815D01*
X50093600Y-48556181D01*
X49513819Y-47976400D01*
X49480334Y-47915077D01*
X49477500Y-47888719D01*
X49477500Y-40138194D01*
X49453386Y-40016970D01*
X49453385Y-40016969D01*
X49453385Y-40016965D01*
X49453383Y-40016960D01*
X49406086Y-39902773D01*
X49406079Y-39902760D01*
X49337412Y-39799993D01*
X49337411Y-39799992D01*
X49250008Y-39712589D01*
X41781200Y-32243781D01*
X41747715Y-32182458D01*
X41747296Y-32180448D01*
X41724353Y-32065103D01*
X41689704Y-31981453D01*
X41663651Y-31918553D01*
X41663644Y-31918540D01*
X41575518Y-31786651D01*
X41575515Y-31786647D01*
X41463352Y-31674484D01*
X41463348Y-31674481D01*
X41331459Y-31586355D01*
X41331446Y-31586348D01*
X41184898Y-31525647D01*
X41184889Y-31525644D01*
X41029319Y-31494700D01*
X41029315Y-31494700D01*
X40870685Y-31494700D01*
X40870680Y-31494700D01*
X40715110Y-31525644D01*
X40715101Y-31525647D01*
X40568553Y-31586348D01*
X40568540Y-31586355D01*
X40436651Y-31674481D01*
X40370823Y-31740309D01*
X40309499Y-31773793D01*
X40239808Y-31768808D01*
X40183874Y-31726937D01*
X40159458Y-31661472D01*
X40159222Y-31657072D01*
X40156685Y-31586348D01*
X40150000Y-31400000D01*
X40149999Y-31400000D01*
X28674500Y-31400000D01*
X28607461Y-31380315D01*
X28561706Y-31327511D01*
X28550500Y-31276000D01*
X28550500Y-27620680D01*
X58944700Y-27620680D01*
X58944700Y-27779319D01*
X58975644Y-27934889D01*
X58975647Y-27934898D01*
X59036348Y-28081446D01*
X59036355Y-28081459D01*
X59124481Y-28213348D01*
X59124484Y-28213352D01*
X59236647Y-28325515D01*
X59236651Y-28325518D01*
X59368540Y-28413644D01*
X59368553Y-28413651D01*
X59478464Y-28459176D01*
X59515103Y-28474353D01*
X59515105Y-28474353D01*
X59515110Y-28474355D01*
X59670680Y-28505299D01*
X59670684Y-28505300D01*
X59670685Y-28505300D01*
X59829316Y-28505300D01*
X59829317Y-28505299D01*
X59881175Y-28494984D01*
X59984889Y-28474355D01*
X59984892Y-28474353D01*
X59984897Y-28474353D01*
X60131453Y-28413648D01*
X60263349Y-28325518D01*
X60375518Y-28213349D01*
X60463648Y-28081453D01*
X60463652Y-28081442D01*
X60463790Y-28081186D01*
X60464161Y-28080684D01*
X60464246Y-28080557D01*
X60464326Y-28080193D01*
X60465854Y-28078150D01*
X60467034Y-28076386D01*
X60467128Y-28076449D01*
X60485470Y-28051947D01*
X60623601Y-27913817D01*
X60684924Y-27880334D01*
X60711281Y-27877500D01*
X64252002Y-27877500D01*
X64319041Y-27897185D01*
X64320892Y-27898398D01*
X64418536Y-27963641D01*
X64418539Y-27963642D01*
X64418547Y-27963648D01*
X64565103Y-28024353D01*
X64565105Y-28024353D01*
X64565110Y-28024355D01*
X64720680Y-28055299D01*
X64720684Y-28055300D01*
X64720685Y-28055300D01*
X64879316Y-28055300D01*
X64879317Y-28055299D01*
X64931175Y-28044984D01*
X65034889Y-28024355D01*
X65034892Y-28024353D01*
X65034897Y-28024353D01*
X65181453Y-27963648D01*
X65313349Y-27875518D01*
X65425518Y-27763349D01*
X65513648Y-27631453D01*
X65574353Y-27484897D01*
X65574509Y-27484116D01*
X65599682Y-27357560D01*
X65605300Y-27329315D01*
X65605300Y-27170685D01*
X65586165Y-27074484D01*
X65574355Y-27015110D01*
X65574352Y-27015101D01*
X65513651Y-26868553D01*
X65513645Y-26868542D01*
X65491252Y-26835028D01*
X65491251Y-26835027D01*
X65425518Y-26736651D01*
X65425515Y-26736647D01*
X65313352Y-26624484D01*
X65313348Y-26624481D01*
X65181459Y-26536355D01*
X65181446Y-26536348D01*
X65034898Y-26475647D01*
X65034889Y-26475644D01*
X64879319Y-26444700D01*
X64879315Y-26444700D01*
X64720685Y-26444700D01*
X64720680Y-26444700D01*
X64565110Y-26475644D01*
X64565101Y-26475647D01*
X64418554Y-26536348D01*
X64418536Y-26536358D01*
X64320892Y-26601602D01*
X64254215Y-26622480D01*
X64252002Y-26622500D01*
X60338195Y-26622500D01*
X60216970Y-26646613D01*
X60216960Y-26646616D01*
X60102773Y-26693913D01*
X60102761Y-26693920D01*
X60046065Y-26731803D01*
X60046060Y-26731807D01*
X60038811Y-26736651D01*
X59999992Y-26762589D01*
X59901745Y-26860834D01*
X59899166Y-26863141D01*
X59870615Y-26876719D01*
X59842875Y-26891866D01*
X59837566Y-26892436D01*
X59836069Y-26893149D01*
X59833728Y-26892849D01*
X59816518Y-26894700D01*
X59670680Y-26894700D01*
X59515110Y-26925644D01*
X59515101Y-26925647D01*
X59368553Y-26986348D01*
X59368540Y-26986355D01*
X59236651Y-27074481D01*
X59236647Y-27074484D01*
X59124484Y-27186647D01*
X59124481Y-27186651D01*
X59036355Y-27318540D01*
X59036348Y-27318553D01*
X58975647Y-27465101D01*
X58975644Y-27465110D01*
X58944700Y-27620680D01*
X28550500Y-27620680D01*
X28550500Y-21424500D01*
X28570185Y-21357461D01*
X28622989Y-21311706D01*
X28674500Y-21300500D01*
X68663610Y-21300500D01*
X68730649Y-21320185D01*
G37*
%TD.AperFunction*%
%TA.AperFunction,Conductor*%
G36*
X38317841Y-53691882D02*
G01*
X38384820Y-53711773D01*
X38430412Y-53764718D01*
X38440142Y-53833907D01*
X38410921Y-53897372D01*
X38364911Y-53930442D01*
X38229938Y-53986348D01*
X38229925Y-53986355D01*
X38098036Y-54074481D01*
X38098032Y-54074484D01*
X37985869Y-54186647D01*
X37985866Y-54186651D01*
X37897740Y-54318540D01*
X37897733Y-54318553D01*
X37837032Y-54465101D01*
X37837029Y-54465110D01*
X37806085Y-54620680D01*
X37806085Y-54779319D01*
X37837029Y-54934889D01*
X37837032Y-54934898D01*
X37897733Y-55081446D01*
X37897740Y-55081458D01*
X37962987Y-55179106D01*
X37983865Y-55245783D01*
X37983885Y-55247997D01*
X37983885Y-55917333D01*
X37964200Y-55984372D01*
X37947566Y-56005014D01*
X36914743Y-57037836D01*
X36853420Y-57071321D01*
X36788744Y-57068086D01*
X36691370Y-57036447D01*
X36458097Y-56999500D01*
X36458092Y-56999500D01*
X36221908Y-56999500D01*
X36221903Y-56999500D01*
X35988631Y-57036446D01*
X35764003Y-57109433D01*
X35553566Y-57216657D01*
X35470047Y-57277338D01*
X35362490Y-57355483D01*
X35362488Y-57355485D01*
X35362487Y-57355485D01*
X35195482Y-57522490D01*
X35152451Y-57581717D01*
X35097120Y-57624382D01*
X35042405Y-57632448D01*
X35022658Y-57630893D01*
X34282962Y-58370590D01*
X34265925Y-58307007D01*
X34200099Y-58192993D01*
X34107007Y-58099901D01*
X33992993Y-58034075D01*
X33929409Y-58017037D01*
X34669105Y-57277340D01*
X34669104Y-57277338D01*
X34586174Y-57217087D01*
X34375802Y-57109897D01*
X34151247Y-57036934D01*
X34151248Y-57036934D01*
X33918052Y-57000000D01*
X33681948Y-57000000D01*
X33448752Y-57036934D01*
X33224197Y-57109897D01*
X33013830Y-57217084D01*
X32930894Y-57277340D01*
X33670591Y-58017037D01*
X33607007Y-58034075D01*
X33492993Y-58099901D01*
X33399901Y-58192993D01*
X33334075Y-58307007D01*
X33317037Y-58370590D01*
X32577340Y-57630893D01*
X32557593Y-57632448D01*
X32553860Y-57631663D01*
X32550222Y-57632808D01*
X32519936Y-57624537D01*
X32489215Y-57618084D01*
X32485429Y-57615114D01*
X32482821Y-57614402D01*
X32473431Y-57605701D01*
X32455712Y-57591800D01*
X32451370Y-57586978D01*
X32404517Y-57522490D01*
X32237510Y-57355483D01*
X32046433Y-57216657D01*
X31835996Y-57109433D01*
X31611368Y-57036446D01*
X31378097Y-56999500D01*
X31378092Y-56999500D01*
X31141908Y-56999500D01*
X31141903Y-56999500D01*
X30908631Y-57036446D01*
X30684003Y-57109433D01*
X30473566Y-57216657D01*
X30390047Y-57277338D01*
X30282490Y-57355483D01*
X30282488Y-57355485D01*
X30282487Y-57355485D01*
X30115485Y-57522487D01*
X30115485Y-57522488D01*
X30115483Y-57522490D01*
X30072452Y-57581717D01*
X29976657Y-57713566D01*
X29911985Y-57840492D01*
X29864010Y-57891288D01*
X29796189Y-57908083D01*
X29730054Y-57885545D01*
X29686603Y-57830830D01*
X29677500Y-57784197D01*
X29677500Y-57111281D01*
X29697185Y-57044242D01*
X29713819Y-57023600D01*
X31105524Y-55631895D01*
X31166847Y-55598410D01*
X31193205Y-55595576D01*
X33527002Y-55595576D01*
X33594041Y-55615261D01*
X33595892Y-55616474D01*
X33693536Y-55681717D01*
X33693539Y-55681718D01*
X33693547Y-55681724D01*
X33840103Y-55742429D01*
X33840105Y-55742429D01*
X33840110Y-55742431D01*
X33995680Y-55773375D01*
X33995684Y-55773376D01*
X33995685Y-55773376D01*
X34154316Y-55773376D01*
X34154317Y-55773375D01*
X34206175Y-55763060D01*
X34309889Y-55742431D01*
X34309892Y-55742429D01*
X34309897Y-55742429D01*
X34456453Y-55681724D01*
X34588349Y-55593594D01*
X34700518Y-55481425D01*
X34788648Y-55349529D01*
X34849353Y-55202973D01*
X34854101Y-55179106D01*
X34880299Y-55047395D01*
X34880300Y-55047392D01*
X34880300Y-54888760D01*
X34880299Y-54888756D01*
X34849355Y-54733186D01*
X34849352Y-54733177D01*
X34788651Y-54586629D01*
X34788644Y-54586616D01*
X34700518Y-54454727D01*
X34700515Y-54454723D01*
X34588352Y-54342560D01*
X34588348Y-54342557D01*
X34456459Y-54254431D01*
X34456446Y-54254424D01*
X34309898Y-54193723D01*
X34309889Y-54193720D01*
X34154319Y-54162776D01*
X34154315Y-54162776D01*
X33995685Y-54162776D01*
X33995680Y-54162776D01*
X33840110Y-54193720D01*
X33840101Y-54193723D01*
X33693554Y-54254424D01*
X33693536Y-54254434D01*
X33595892Y-54319678D01*
X33529215Y-54340556D01*
X33527002Y-54340576D01*
X30820116Y-54340576D01*
X30698897Y-54364688D01*
X30698889Y-54364690D01*
X30645301Y-54386887D01*
X30645296Y-54386889D01*
X30639033Y-54389484D01*
X30584691Y-54411993D01*
X30520735Y-54454727D01*
X30516250Y-54457723D01*
X30516244Y-54457727D01*
X30481913Y-54480666D01*
X30481912Y-54480667D01*
X28762181Y-56200399D01*
X28700858Y-56233884D01*
X28631166Y-56228900D01*
X28575233Y-56187028D01*
X28550816Y-56121564D01*
X28550500Y-56112718D01*
X28550500Y-53786140D01*
X28570185Y-53719101D01*
X28622989Y-53673346D01*
X28674879Y-53662141D01*
X38317841Y-53691882D01*
G37*
%TD.AperFunction*%
%TD*%
M02*
