M48
; DRILL file KiCad 10.0.1 date 2026-05-05T15:25:16
; FORMAT={-:-/ absolute / metric / decimal}
; #@! TF.CreationDate,2026-05-05T15:25:16-05:00
; #@! TF.GenerationSoftware,Kicad,Pcbnew,10.0.1
; #@! TF.FileFunction,Plated,1,2,PTH
FMAT,2
METRIC
; #@! TA.AperFunction,Plated,PTH,ViaDrill
T1C0.305
; #@! TA.AperFunction,Plated,PTH,ComponentDrill
T2C0.600
; #@! TA.AperFunction,Plated,PTH,ComponentDrill
T3C0.800
; #@! TA.AperFunction,Plated,PTH,ComponentDrill
T4C1.000
; #@! TA.AperFunction,Plated,PTH,ComponentDrill
T5C1.500
%
G90
G05
T1
X29.05Y-60.4
X34.075Y-54.968
X38.611Y-54.7
X40.95Y-32.3
X41.264Y-54.6
X47.65Y-53.3
X51.615Y-42.065
X51.85Y-40.8
X51.95Y-47.2
X51.95Y-52.4
X52.65Y-30.1
X55.05Y-41.7
X57.55Y-62.9
X59.35Y-63.0
X59.75Y-27.7
X61.55Y-31.3
X61.55Y-36.5
X64.8Y-27.25
X68.05Y-31.6
X69.05Y-31.6
X70.85Y-28.5
X71.65Y-29.1
X71.65Y-68.7
X72.908Y-28.758
X73.85Y-61.7
X74.75Y-28.8
X75.65Y-29.0
X77.45Y-28.9
T3
X74.81Y-65.043
X77.35Y-65.043
T4
X31.26Y-58.5
X33.8Y-58.5
X36.34Y-58.5
X38.88Y-58.5
X39.11Y-65.2
X41.42Y-58.5
X41.65Y-65.2
X43.96Y-58.5
X44.19Y-65.2
X46.5Y-58.5
X46.73Y-65.2
X49.04Y-58.5
X57.25Y-31.44
X57.25Y-33.98
X57.25Y-36.52
X57.25Y-39.06
X57.25Y-41.6
X57.25Y-44.14
X57.25Y-46.68
X57.25Y-49.22
T5
X74.81Y-68.043
X77.35Y-68.043
T2
G00X69.639Y-22.787
M15
G01X69.639Y-21.988
M16
G05
G00X69.639Y-27.117
M15
G01X69.639Y-26.017
M16
G05
G00X78.279Y-22.787
M15
G01X78.279Y-21.988
M16
G05
G00X78.279Y-27.117
M15
G01X78.279Y-26.017
M16
G05
M30
